<?xml version="1.0" standalone="no"?>
<!DOCTYPE svg PUBLIC "-//W3C//DTD SVG 1.1//EN" "http://www.w3.org/Graphics/SVG/1.1/DTD/svg11.dtd" >
<svg xmlns="http://www.w3.org/2000/svg" xmlns:xlink="http://www.w3.org/1999/xlink" version="1.1">
<metadata>
Created by FontForge 20190801 at Fri Jan  1 01:00:00 1904
 By Jimmy Wärting
</metadata>
<defs>
<font id="EUROSTYLECYR" horiz-adv-x="896" >
  <font-face 
    font-family="EUROSTYLE_CYR"
    font-weight="300"
    font-stretch="normal"
    units-per-em="2048"
    panose-1="2 11 114 0 0 0 0 0 0 0"
    ascent="1638"
    descent="-410"
    x-height="952"
    cap-height="1364"
    bbox="-4 -428 2092 1620"
    underline-thickness="0"
    underline-position="0"
    unicode-range="U+0020-2018"
  />
<missing-glyph horiz-adv-x="1536" 
d="M256 0v1280h1024v-1280h-1024zM1248 32v1216h-960v-1216h960z" />
    <glyph glyph-name=".notdef" horiz-adv-x="1536" 
d="M256 0v1280h1024v-1280h-1024zM1248 32v1216h-960v-1216h960z" />
    <glyph glyph-name=".null" horiz-adv-x="0" 
 />
    <glyph glyph-name="nonmarkingreturn" horiz-adv-x="0" 
 />
    <glyph glyph-name="space" unicode=" " horiz-adv-x="592" 
d="M580 -4h-568h568z" />
    <glyph glyph-name="exclam" unicode="!" horiz-adv-x="276" 
d="M248 248v-252h-228v252h228zM264 1360l-20 -908h-220l-16 908h256z" />
    <glyph glyph-name="quotedbl" unicode="&#x22;" horiz-adv-x="660" 
d="M232 816h-180l-40 548h268zM612 816h-180l-44 548h268z" />
    <glyph glyph-name="numbersign" unicode="#" horiz-adv-x="1172" 
d="M548 920h264l108 260h112l-108 -260h244l-36 -104h-248l-108 -260h252l-44 -100h-248l-108 -268h-108l108 268h-264l-112 -268h-112l108 268h-248l40 100h252l104 260h-252l44 104h252l104 260h112zM508 816l-108 -260h268l104 260h-264z" />
    <glyph glyph-name="dollar" unicode="$" horiz-adv-x="1192" 
d="M672 1164v-368q138 -4 222 -15.5t151 -46t107 -111.5t40 -203q0 -128 -27 -209.5t-82 -125t-142.5 -63.5t-220.5 -26h-48v-152h-148v152q-122 0 -213 14t-160 55t-106 120.5t-37 206.5v48h236q0 -87 14.5 -135.5t46.5 -69t73.5 -25t145.5 -10.5v396q-117 12 -212 23
t-157.5 41.5t-98.5 108t-36 223.5q0 126 36.5 203t102 116t151 52t214.5 13v128h148v-128q145 -7 225.5 -20t137.5 -50.5t87 -116.5t30 -217h-228q-4 12 -4 28q0 107 -63 135.5t-185 28.5zM524 1164h-36q-83 0 -126 -8.5t-70.5 -45t-27.5 -114.5q0 -90 29 -132t79.5 -51
t151.5 -9v360zM672 200q84 0 143.5 12.5t98 55t38.5 124.5q0 76 -19 117t-53.5 55.5t-92.5 17.5t-115 6v-388z" />
    <glyph glyph-name="percent" unicode="%" horiz-adv-x="1556" 
d="M4 1040q0 118 17.5 186.5t74 105t172.5 36.5h28q109 0 170 -19t89.5 -77.5t28.5 -179.5v-128q0 -101 -18 -163t-73 -93.5t-161 -31.5q-116 0 -186.5 19t-108 78t-37.5 175q0 13 2 44t2 48zM136 1032v-112q1 -59 16.5 -86.5t43.5 -34.5t88 -7q96 0 130 22t34 106
q0 34 2 102t2 102q0 89 -32 108.5t-128 19.5h-44q-57 0 -79.5 -23t-32.5 -81v-116zM1280 1364l-868 -1368h-140l864 1368h144zM968 356q0 120 17.5 188.5t73.5 104t173 35.5q94 0 149 -8t93.5 -34.5t58 -78t19.5 -143.5v-148q0 -80 -8 -120q-17 -70 -56 -104t-93.5 -45
t-126.5 -11q-78 0 -133 10t-94.5 40.5t-58 84.5t-18.5 137q0 16 2 46t2 46zM1100 348l4 -112q0 -86 30.5 -105t117.5 -19q66 0 99 7.5t49 35t16 85.5v200q0 62 -15.5 90t-45.5 35t-99 7h-40q-71 0 -94 -44.5t-23 -120.5q0 -15 0.5 -27.5t0.5 -31.5z" />
    <glyph glyph-name="ampersand" unicode="&#x26;" horiz-adv-x="1320" 
d="M908 660h220q7 -45 7 -103q0 -129 -35 -245l200 -164l-124 -152l-164 140q-41 -65 -105 -97.5t-134.5 -41.5t-164.5 -9h-36q-153 0 -252.5 12t-173.5 55.5t-112 135t-38 241.5q0 161 55.5 241t208.5 103q-52 44 -75.5 76t-32 71.5t-8.5 108.5q0 105 31 169.5t86.5 96.5
t130.5 43t180 11q153 0 246 -23t143.5 -98.5t50.5 -226.5v-72h-232q0 105 -9 146.5t-49 59.5t-138 18q-97 0 -146.5 -22.5t-49.5 -105.5q0 -47 9 -78t30 -55.5t65 -62.5l412 -352q5 35 5 89q0 30 -0.5 49t-0.5 42zM396 652q-64 -12 -97 -34t-44 -60.5t-11 -109.5
q0 -91 14.5 -143t46.5 -76t83.5 -30.5t139.5 -6.5h76q89 0 140.5 16.5t95.5 71.5z" />
    <glyph glyph-name="quotesingle" unicode="'" horiz-adv-x="252" 
d="M252 1364v-240q0 -90 -26 -141t-79 -73t-143 -22v108q65 0 86.5 29.5t21.5 94.5h-88v244h228z" />
    <glyph glyph-name="parenleft" unicode="(" horiz-adv-x="448" 
d="M440 1384v-216q-92 0 -128 -28q-57 -42 -57 -184q0 -28 2.5 -68t2.5 -68v-92l4 -488q0 -114 23 -177t113 -63h40v-212q-131 0 -211 24t-125 75t-65.5 133.5t-26.5 215.5q-4 108 -4 324v272q0 156 12.5 253t55 164t130 101t234.5 34z" />
    <glyph glyph-name="parenright" unicode=")" horiz-adv-x="448" 
d="M4 -212v216q113 0 146.5 76t33.5 207v65v96l-8 480q0 113 -23 178.5t-113 65.5h-36v212q164 0 254 -41t127.5 -136t42.5 -271q8 -108 8 -324v-236q0 -172 -8.5 -265t-48 -168.5t-129 -115t-246.5 -39.5z" />
    <glyph glyph-name="asterisk" unicode="*" horiz-adv-x="744" 
d="M732 1052l-248 -84l148 -212l-104 -80l-152 220l-164 -220l-108 80l152 212l-248 92l48 132l248 -92v264h136v-264l248 92z" />
    <glyph glyph-name="plus" unicode="+" horiz-adv-x="980" 
d="M4 776h416v404h128v-404h416v-120h-416v-404h-128v404h-416v120z" />
    <glyph glyph-name="comma" unicode="," horiz-adv-x="252" 
d="M252 244v-240q0 -127 -59.5 -181.5t-188.5 -54.5v108q63 0 85.5 29t22.5 91h-88v248h228z" />
    <glyph glyph-name="hyphen" unicode="-" horiz-adv-x="512" 
d="M12 620h484v-236h-484v236z" />
    <glyph glyph-name="period" unicode="." horiz-adv-x="232" 
d="M228 248v-252h-228v252h228z" />
    <glyph glyph-name="slash" unicode="/" horiz-adv-x="1128" 
d="M1104 1364l-924 -1572h-172l924 1572h172z" />
    <glyph glyph-name="zero" unicode="0" horiz-adv-x="1172" 
d="M12 712v97q0 95 7 168.5t30 144t71.5 127.5t123.5 87q49 22 109.5 29t138.5 7h96q163 0 263 -15.5t166.5 -63t101.5 -144t41 -261.5v-180q1 -45 2 -99t1 -88q0 -171 -38.5 -291t-152.5 -186q-61 -35 -144 -43.5t-200 -8.5h-108q-92 0 -161 8.5t-133.5 37t-109.5 82.5
q-46 58 -69 129t-29 140.5t-6 174.5v36v112zM268 700v-224q1 -96 19.5 -151.5t55.5 -80.5t87 -30.5t150 -5.5q99 0 156 8.5t95.5 34t57.5 78t19 143.5v412q0 133 -31.5 190t-92.5 69.5t-200 12.5h-76q-69 0 -114.5 -10.5t-78.5 -51.5t-43 -126q-5 -57 -5 -134
q0 -33 0.5 -60.5t0.5 -73.5z" />
    <glyph glyph-name="one" unicode="1" horiz-adv-x="788" 
d="M764 1364v-1368h-244v1148l-356 -352l-152 160l440 412h312z" />
    <glyph glyph-name="two" unicode="2" horiz-adv-x="1044" 
d="M1036 204v-208h-1032v284q0 159 50 237t134 107t264 60q67 9 140 20.5t112 32t59.5 69t20.5 138.5q0 105 -24 149.5t-75 57.5t-161 13q-93 0 -142 -7t-79 -29.5t-42.5 -72.5t-12.5 -135v-44h-244v60q2 87 8.5 145.5t33.5 116t82 94.5q74 50 165.5 63t230.5 13
q138 0 228 -15t154.5 -59t97 -127.5t32.5 -222.5q0 -176 -48.5 -264t-128 -121.5t-240.5 -58t-239 -44.5q-60 -16 -87 -43t-34 -64t-7 -109v-36h784z" />
    <glyph glyph-name="three" unicode="3" horiz-adv-x="1084" 
d="M436 596v196q24 0 72 2t72 2q97 0 140 12t59.5 52.5t16.5 131.5q0 112 -69.5 144t-198.5 32q-121 0 -172.5 -15.5t-67.5 -64.5t-16 -164h-244q0 141 24.5 231.5t79.5 138t142.5 65t233.5 17.5q136 0 220 -8.5t158.5 -42.5t118 -108.5t43.5 -200.5q0 -91 -16.5 -154
t-66 -106.5t-137.5 -55.5v-8q137 -20 188.5 -87.5t51.5 -212.5q0 -106 -22.5 -186t-82 -133t-163.5 -69q-110 -20 -264 -20q-125 0 -217 13t-164 54.5t-111.5 122.5t-39.5 210q0 48 4 76h244q0 -107 16 -162t65 -78.5t155 -23.5h56q108 0 161.5 11.5t82 57t28.5 143.5
q0 120 -46 154t-174 34h-160z" />
    <glyph glyph-name="four" unicode="4" horiz-adv-x="1172" 
d="M992 1364v-876h160v-196h-160v-296h-244v296h-744v284l608 788h380zM748 488l-4 684l-532 -684h536z" />
    <glyph glyph-name="five" unicode="5" horiz-adv-x="1064" 
d="M992 1364v-196h-724v-340q51 67 130 87.5t190 20.5q166 0 267 -41.5t149 -138t48 -264.5q0 -196 -48 -323.5t-208 -156.5q-120 -24 -308 -24q-80 0 -135 4t-112 19t-105 46t-80 83q-29 50 -36 102t-12 150h252q1 -91 27 -133.5t71 -52.5t142 -10q82 0 133.5 5.5t88.5 27
t55.5 66t18.5 125.5v68q0 141 -43.5 192.5t-184.5 51.5h-92q-87 0 -141 -16.5t-67 -79.5h-228v728h952z" />
    <glyph glyph-name="six" unicode="6" horiz-adv-x="1064" 
d="M1048 980h-252q0 107 -39.5 145.5t-148.5 38.5h-120q-86 0 -134 -15t-69 -56t-21 -121v-36v-236q43 86 116 109t196 23q172 0 273.5 -28.5t156 -113.5t54.5 -254q0 -181 -54 -295.5t-214 -136.5q-107 -16 -252 -16q-183 0 -296 34t-174.5 131.5t-61.5 282.5q0 106 1 173
l2 134t1 173q0 144 31 234.5t95.5 139t160 65.5t241.5 17q178 0 283 -24.5t165 -108.5t60 -259zM260 448q0 -94 11.5 -143.5t41.5 -73t81 -29.5t146 -6h16q95 0 144 8.5t78.5 47t29.5 120.5v44q0 72 -6 110.5t-26.5 61t-61.5 31.5t-122 9h-80q-73 0 -123.5 -7t-84.5 -33
q-29 -19 -36.5 -53.5t-7.5 -86.5z" />
    <glyph glyph-name="seven" unicode="7" horiz-adv-x="1044" 
d="M1020 1364v-252l-556 -1116h-280l588 1152h-764v216h1012z" />
    <glyph glyph-name="eight" unicode="8" horiz-adv-x="1084" 
d="M836 700q135 -32 183.5 -100t48.5 -212q0 -170 -52.5 -257t-155 -115t-288.5 -28h-32q-147 0 -235 10.5t-158 50t-106.5 121.5t-36.5 222q0 144 52.5 211t187.5 97q-65 21 -108 46t-67.5 58.5t-34.5 81.5t-10 118q0 145 50 225.5t143 111.5t239 31h76q138 0 219.5 -8.5
t150.5 -42t109.5 -109.5t40.5 -204q0 -168 -60 -228q-15 -19 -39.5 -33t-56 -25.5t-60.5 -21.5zM276 996q0 -74 10 -112.5t43.5 -60.5t102.5 -23q60 -4 176 -4q117 0 154.5 46t37.5 158q0 78 -22.5 113.5t-66.5 45t-131 9.5h-84q-140 0 -180 -32q-26 -21 -33 -55t-7 -85z
M260 400q0 -79 18.5 -122t62 -60.5t123.5 -17.5h144q83 0 127 16.5t64.5 58.5t20.5 121q0 102 -28.5 148t-123.5 52q-68 4 -208 4q-79 0 -121 -14t-60.5 -57t-18.5 -129z" />
    <glyph glyph-name="nine" unicode="9" horiz-adv-x="1084" 
d="M8 380h244q0 -72 19 -112t60.5 -56t116.5 -16h76q137 0 212.5 38.5t75.5 169.5v260q-28 -61 -77 -89.5t-105 -35.5t-142 -7q-130 0 -212 14.5t-140 56t-87 122t-29 207.5q0 141 29 228.5t87 133.5t145.5 64t226.5 18q193 0 305 -27.5t176.5 -119t74.5 -277.5
q0 -96 1 -157l2 -122t1 -157q0 -154 -23 -253.5t-78 -159.5t-154.5 -87.5t-260.5 -27.5h-28q-141 0 -229 9t-153.5 46t-99.5 116.5t-34 220.5zM268 948q0 -88 18 -132t63.5 -62t134.5 -18h108q80 0 126.5 12t72 49.5t25.5 110.5q0 113 -17.5 166.5t-68 71.5t-162.5 18h-48
q-80 0 -124.5 -5.5t-73.5 -26t-41.5 -65t-12.5 -119.5z" />
    <glyph glyph-name="colon" unicode=":" horiz-adv-x="232" 
d="M228 248v-252h-228v252h228zM228 956v-252h-228v252h228z" />
    <glyph glyph-name="semicolon" unicode=";" horiz-adv-x="276" 
d="M264 244v-240q0 -127 -59.5 -181.5t-188.5 -54.5v108q63 0 85.5 29t22.5 91h-88v248h228zM260 952v-248h-228v248h228z" />
    <glyph glyph-name="less" unicode="&#x3c;" horiz-adv-x="916" 
d="M900 1240v-248l-620 -304l620 -308v-244l-884 448v208z" />
    <glyph glyph-name="equal" unicode="=" horiz-adv-x="980" 
d="M4 924h960v-116h-960v116zM4 628h960v-120h-960v120z" />
    <glyph glyph-name="greater" unicode="&#x3e;" horiz-adv-x="916" 
d="M16 136v248l624 304l-620 304l-4 248l888 -448v-212z" />
    <glyph glyph-name="question" unicode="?" horiz-adv-x="916" 
d="M508 248v-252h-228v252h228zM512 432h-232q0 114 11 168.5t51.5 92.5t137.5 79q38 16 80.5 34.5t66 39.5t34.5 57.5t11 92.5q0 75 -17 114t-56.5 54.5t-114.5 15.5h-32q-84 0 -129.5 -13t-66 -52.5t-20.5 -118.5v-48h-228q0 32 4 48q0 104 13.5 172t66.5 116
q102 88 348 88q158 0 254.5 -23t151 -101t54.5 -232q0 -94 -13.5 -162t-58.5 -118q-41 -48 -135 -91t-137.5 -81.5t-43.5 -131.5z" />
    <glyph glyph-name="at" unicode="@" horiz-adv-x="1256" 
d="M768 1004h168v-432q3 -51 5.5 -72t18.5 -38.5t56 -17.5q42 0 59.5 21t24.5 67q16 76 16 232v52q0 136 -15.5 200t-68 96t-168.5 40q-72 4 -163 4q-150 0 -297 -12q-100 -7 -159.5 -38t-84.5 -114q-19 -62 -23.5 -131t-4.5 -169v-40q0 -167 9.5 -256t48 -146.5t125 -83.5
t241.5 -26h120q27 0 47.5 -0.5t45.5 -1.5q184 0 223 82l120 -56q-57 -96 -156 -122t-252 -26h-24h-92q-125 0 -214.5 9.5t-164 42.5t-124.5 103.5t-65 192.5q-16 123 -16 280q0 203 24 322t88 187.5t181 95.5t319 27h48q250 0 366 -30t165 -136.5t49 -345.5q0 -77 -3 -137.5
t-16.5 -123.5t-40.5 -107q-23 -43 -74.5 -66t-114.5 -23q-76 0 -136 34t-71 95q-28 -72 -84 -98t-144 -26q-111 0 -166.5 41t-72.5 112t-17 183q0 114 17.5 191t73.5 123t165 46q80 0 127.5 -19t80.5 -77v92zM616 884q-95 0 -121.5 -42.5t-26.5 -133.5v-88q0 -66 8 -102
t38 -57t94 -21q75 0 110 21.5t44.5 61.5t9.5 117v76q0 88 -35.5 128t-120.5 40z" />
    <glyph glyph-name="A" unicode="A" horiz-adv-x="1324" 
d="M956 260h-592l-84 -264h-272l456 1368h384l464 -1368h-268zM896 456l-236 708l-236 -708h472z" />
    <glyph glyph-name="B" unicode="B" horiz-adv-x="1192" 
d="M16 -4v1368h700q194 0 285 -74.5t91 -269.5q0 -91 -13 -150.5t-55.5 -102t-123.5 -59.5v-8q128 -20 178 -94t50 -214t-37 -227t-122 -128t-233 -41h-720zM276 600v-388h332q97 0 149.5 12.5t79.5 54.5t27 129q0 118 -46 155t-166 37h-376zM832 984q0 95 -35.5 129.5
t-132.5 34.5h-388v-356h332q86 0 134 13.5t69 55t21 123.5z" />
    <glyph glyph-name="C" unicode="C" horiz-adv-x="1172" 
d="M904 488h256q0 -18 2 -56t2 -56q0 -117 -35 -194.5t-100 -119.5t-151 -58t-202 -16h-184q-185 0 -289 63t-143.5 182.5t-39.5 306.5q0 50 -2 150t-2 150q0 169 37.5 274.5t112.5 161.5t185 76t281 20h88q131 0 222.5 -26.5t145.5 -109.5q23 -33 37 -73t18 -70.5
t7.5 -95.5t5.5 -93h-260q-4 16 -9 91.5t-33.5 109.5t-113.5 39q-40 4 -116 4h-48q-80 0 -140 -11t-92 -45q-58 -58 -58 -201q1 -29 1.5 -53t0.5 -58q0 -176 4 -264q0 -138 28.5 -201.5t95 -83t208.5 -19.5q99 0 154.5 10t92.5 51.5t37 126.5q0 16 -2 45t-2 43z" />
    <glyph glyph-name="D" unicode="D" horiz-adv-x="1192" 
d="M-4 -4v1368h672q133 0 229.5 -28.5t159.5 -88t95 -154.5t32 -233v-232q0 -195 -33.5 -331.5t-135.5 -218.5t-299 -82h-720zM628 220q128 0 191 45t80 124t17 215v72q0 180 -8 268q-14 112 -79.5 154t-184.5 42h-384v-920h368z" />
    <glyph glyph-name="E" unicode="E" horiz-adv-x="960" 
d="M260 1148v-356h640v-192h-640v-388h676v-216h-932v1368h928v-216h-672z" />
    <glyph glyph-name="F" unicode="F" horiz-adv-x="916" 
d="M276 1144v-368h608v-216h-608v-564h-264v1368h904v-220h-640z" />
    <glyph glyph-name="G" unicode="G" horiz-adv-x="1216" 
d="M604 724h600v-36l4 -220q0 -138 -21.5 -233t-91 -158.5t-203.5 -80.5q-92 -8 -272 -8q-221 0 -349 41.5t-191.5 157t-63.5 337.5q0 29 -1.5 75.5t-3.5 110.5t-2 97q0 127 20.5 228.5t74.5 180.5q51 71 126.5 106t157 44.5t188.5 9.5h124q190 0 293.5 -29t156.5 -119.5
t54 -275.5h-260q0 90 -44.5 135.5t-110 57t-161.5 11.5q-137 0 -206 -18.5t-98 -65t-34.5 -111t-9.5 -261.5l4 -180q0 -108 15.5 -168.5t51.5 -91.5t98.5 -41.5t170.5 -10.5q137 0 203.5 18t95.5 76t29 186v40h-344v196z" />
    <glyph glyph-name="H" unicode="H" horiz-adv-x="1192" 
d="M1172 1364v-1368h-264v584h-636v-584h-260v1368h260v-560h636v560h264z" />
    <glyph glyph-name="I" unicode="I" horiz-adv-x="276" 
d="M272 1364v-1368h-260v1368h260z" />
    <glyph glyph-name="J" unicode="J" horiz-adv-x="916" 
d="M896 1364v-956q0 -158 -40.5 -249t-133.5 -131t-254 -40q-113 0 -196.5 12.5t-145 51t-94 112t-32.5 192.5v176h248q-4 -36 -4 -112q0 -66 6.5 -104.5t24.5 -61t55 -32.5t102 -10q115 0 159.5 39t44.5 153v36v924h260z" />
    <glyph glyph-name="K" unicode="K" horiz-adv-x="1236" 
d="M264 1364v-556h124l452 556h324l-552 -664l608 -704h-332l-500 588h-124v-588h-260v1368h260z" />
    <glyph glyph-name="L" unicode="L" horiz-adv-x="916" 
d="M280 1364v-1136h632v-232h-896v1368h264z" />
    <glyph glyph-name="M" unicode="M" horiz-adv-x="1620" 
d="M1600 1364v-1368h-256l8 1152l-428 -1152h-236l-436 1148l12 -1148h-256v1368h424l368 -1012h8l364 1012h428z" />
    <glyph glyph-name="N" unicode="N" horiz-adv-x="1276" 
d="M1264 1364v-1368h-432l-580 1144h-8l8 -1144h-252v1368h432l576 -1144h8l-8 1144h256z" />
    <glyph glyph-name="O" unicode="O" horiz-adv-x="1192" 
d="M8 664q0 207 14.5 326.5t64.5 206.5t162 133t303 46q142 0 244 -13t185 -54t133.5 -125.5t57.5 -223.5q4 -60 4 -184v-92q0 -225 -14 -344t-70 -199t-178.5 -118.5t-341.5 -38.5q-158 0 -265 24.5t-174 84t-98 164t-31 267.5q0 27 2 74t2 66zM272 668q0 -160 4 -240
q7 -99 40 -146t90.5 -60.5t161.5 -13.5q132 0 200.5 19t102 79t37.5 186q4 112 4 332q0 138 -18.5 204t-77.5 95t-188 29q-153 0 -225 -21.5t-98.5 -72.5t-29 -162t-3.5 -228z" />
    <glyph glyph-name="P" unicode="P" horiz-adv-x="1108" 
d="M8 -4v1368h544q200 0 312 -33t168 -133t56 -298q0 -129 -19 -219.5t-85 -148.5q-40 -39 -86.5 -57.5t-105.5 -26t-124 -7.5t-100 -1h-308v-444h-252zM260 664h296q112 0 165 12.5t78 60t25 155.5q0 105 -17 158t-66.5 73.5t-156.5 20.5h-324v-480z" />
    <glyph glyph-name="Q" unicode="Q" horiz-adv-x="1340" 
d="M1336 184l-104 -156l-120 88q-56 -56 -131 -83.5t-148 -34t-181 -6.5q-176 0 -292 20t-192.5 78t-114 168t-37.5 290v152q0 192 12 300q16 125 70.5 201.5t133 112t173 47t231.5 11.5q174 0 284.5 -22.5t178.5 -83t99 -167t34 -287.5v-292q0 -168 -24 -248zM668 640
l292 -200q13 100 13 214q0 68 -9 246q-6 136 -60 194t-188 58h-84q-115 0 -176 -9.5t-99 -39t-55.5 -90t-17.5 -169.5v-168v-115q0 -113 8.5 -175.5t39.5 -101t98.5 -55.5t193.5 -17h32q80 0 137 10.5t103 45.5l-336 216z" />
    <glyph glyph-name="R" unicode="R" horiz-adv-x="1132" 
d="M16 -4v1368h664q159 0 256 -38t142.5 -130.5t45.5 -251.5q0 -113 -14.5 -187.5t-69.5 -124.5q-32 -27 -68.5 -39t-95.5 -25v-8q232 -11 232 -264v-300h-264v248v32q-3 99 -55 139.5t-149 40.5h-368v-460h-256zM272 672h368q79 0 126.5 21t68.5 67t21 124q0 97 -11 147.5
t-53.5 77.5t-135.5 27h-384v-464z" />
    <glyph glyph-name="S" unicode="S" horiz-adv-x="1128" 
d="M1080 964h-248q0 120 -48.5 162t-171.5 42h-72q-145 0 -204 -32q-56 -37 -56 -148q0 -71 16 -108t55 -54t113 -22q132 -5 249.5 -9.5t206.5 -33.5t142.5 -109.5t53.5 -231.5q0 -93 -12 -164t-44 -124t-96 -86t-160 -42q-88 -12 -256 -12q-143 0 -232 9.5t-157 46
t-105.5 117t-37.5 215.5v56h248q0 -78 10.5 -125.5t47 -77t110.5 -29.5q135 -10 173 -10q117 0 186 42.5t69 159.5q0 78 -25 118t-67 53t-102.5 14.5t-141.5 2.5q-156 12 -234 24t-141 50t-96 118t-33 216q0 86 18 152.5t56.5 112.5t100.5 71.5t149 31.5q108 12 216 12
q182 0 284 -18t169 -95.5t67 -242.5v-52z" />
    <glyph glyph-name="T" unicode="T" horiz-adv-x="1064" 
d="M660 1132v-1136h-264v1136h-392v232h1060v-232h-404z" />
    <glyph glyph-name="U" unicode="U" horiz-adv-x="1152" 
d="M880 1360h260v-908q0 -156 -34 -252t-123 -148.5t-247 -59.5q-48 -4 -152 -4q-163 0 -258.5 12t-168.5 55.5t-111 136.5t-38 248v920h260v-920q0 -96 26.5 -146.5t82 -68t151.5 -17.5h92q97 0 150.5 14t81.5 59t28 135v32v912z" />
    <glyph glyph-name="V" unicode="V" horiz-adv-x="1276" 
d="M1004 1364h268l-440 -1368h-392l-436 1368h268l364 -1148z" />
    <glyph glyph-name="W" unicode="W" horiz-adv-x="2048" 
d="M2040 1364l-364 -1368h-380l-276 1044h-4l-284 -1044h-372l-356 1368h260l284 -1152h8l316 1152h300l308 -1152l296 1152h264z" />
    <glyph glyph-name="X" unicode="X" horiz-adv-x="1324" 
d="M1280 1364l-404 -660l436 -708h-304l-344 576l-344 -576h-308l448 708l-416 660h304l316 -544l316 544h300z" />
    <glyph glyph-name="Y" unicode="Y" horiz-adv-x="1276" 
d="M1268 1364l-508 -840v-528h-260v528l-492 840h296l332 -584l328 584h304z" />
    <glyph glyph-name="Z" unicode="Z" horiz-adv-x="1108" 
d="M1088 1364v-224l-756 -916l764 -4v-224h-1088v224l748 916l-716 4v224h1048z" />
    <glyph glyph-name="bracketleft" unicode="[" horiz-adv-x="448" 
d="M16 1364h420v-196h-176v-1180h176v-196h-420v1572z" />
    <glyph glyph-name="backslash" unicode="\" horiz-adv-x="1108" 
d="M8 1364h172l924 -1572h-172z" />
    <glyph glyph-name="bracketright" unicode="]" horiz-adv-x="448" 
d="M432 -208h-420v196h172v1180h-172v196h420v-1572z" />
    <glyph glyph-name="asciicircum" unicode="^" horiz-adv-x="936" 
d="M220 736h-224l332 636h276l328 -636h-224l-244 464z" />
    <glyph glyph-name="underscore" unicode="_" horiz-adv-x="1024" 
d="M-4 -132h1024v-152h-1024v152z" />
    <glyph glyph-name="quoteleft" unicode="&#x2018;" horiz-adv-x="252" 
d="M0 912v240q0 91 17.5 141.5t65 74.5t141.5 24q4 0 12 -2t12 -2v-104q-65 -3 -86.5 -32t-21.5 -92h88v-248h-228z" />
    <glyph glyph-name="a" unicode="a" 
d="M272 672h-232q0 100 29.5 159t82.5 87t121 35t167 7q153 0 246.5 -22t147.5 -95.5t54 -222.5v-624h-228l8 120q-35 -59 -81 -87.5t-99 -36.5t-132 -8q-111 0 -187 25t-118.5 88t-42.5 175q0 117 41 184.5t119 93.5t196 26q107 0 174.5 -18t113.5 -82l4 144
q0 81 -18.5 121.5t-62 55.5t-123.5 15q-92 0 -136 -29.5t-44 -110.5zM424 144q107 0 169.5 26.5t62.5 117.5q0 86 -59.5 113t-164.5 27q-91 0 -143.5 -26.5t-52.5 -105.5q0 -68 20 -100.5t58 -42t110 -9.5z" />
    <glyph glyph-name="b" unicode="b" horiz-adv-x="916" 
d="M16 -4v1368h228v-540h8q39 81 108 112.5t168 31.5q162 0 244.5 -52.5t107 -151.5t24.5 -272q0 -178 -22 -280t-103 -163t-247 -61q-109 0 -175 32.5t-121 119.5l8 -144h-228zM248 496v-36q0 -114 11.5 -170t58.5 -89t150 -33q94 0 139 31.5t57 85.5t12 155v80
q0 149 -38 210.5t-174 61.5q-75 0 -118.5 -20t-64 -57.5t-27 -89.5t-6.5 -129z" />
    <glyph glyph-name="c" unicode="c" 
d="M660 360h224q0 -115 -20.5 -186.5t-66 -113t-121 -59t-192.5 -17.5q-134 0 -223 21.5t-144 71.5t-80 138t-25 225q0 145 14.5 237t59 157t131.5 97.5t231 32.5q136 0 228 -21.5t146 -90t54 -200.5q0 -24 -4 -32h-220q0 76 -21 111.5t-62.5 46t-124.5 10.5q-60 0 -99.5 -9
t-60.5 -43q-42 -65 -42 -205q1 -31 1.5 -56.5t0.5 -62.5q0 -93 13 -145t57 -79.5t134 -27.5q92 0 135.5 14.5t60 56t16.5 129.5z" />
    <glyph glyph-name="d" unicode="d" 
d="M888 1364v-1368h-224l4 148q-36 -64 -78.5 -98t-95 -46t-130.5 -12q-129 0 -202.5 38t-107.5 107.5t-42 151t-8 223.5q0 111 14 192t51 140.5t108 91.5t183 32q114 0 180.5 -25.5t115.5 -110.5v536h232zM240 288q17 -76 66 -102t134 -26q137 0 180 64q40 64 40 248
q0 120 -11.5 182t-61 100t-155.5 38q-129 0 -168.5 -68.5t-39.5 -211.5v-16q0 -140 16 -208z" />
    <glyph glyph-name="e" unicode="e" 
d="M656 304h224q4 -12 4 -36q0 -122 -57 -184t-147 -81t-216 -19q-151 0 -243 27.5t-138 86t-62.5 151t-16.5 247.5q0 131 17.5 218t65 144.5t130 83.5t219.5 26q141 0 226 -22.5t133.5 -73.5t68.5 -138t20 -230l-4 -68h-648q0 -94 5 -140t26.5 -79t69.5 -49t135 -16
q88 0 138 26.5t50 105.5v20zM444 800q-84 0 -126.5 -14.5t-61 -55t-20.5 -122.5q0 -4 -2 -15t-2 -17h428q0 97 -15 143t-59.5 63.5t-141.5 17.5z" />
    <glyph glyph-name="f" unicode="f" horiz-adv-x="616" 
d="M608 956v-172h-236v-788h-228v788h-136v172h136v104q0 74 7.5 125.5t36.5 86.5q47 63 125.5 84t182.5 21q36 0 57.5 -0.5t46.5 -0.5v-172q-33 6 -65 6q-74 0 -118.5 -35.5t-44.5 -114.5v-104h236z" />
    <glyph glyph-name="g" unicode="g" 
d="M888 952v-976q0 -160 -44.5 -248t-139 -122t-256.5 -34q-138 0 -236.5 24t-143.5 112q-13 23 -20 56.5t-9 72.5t-3 59h216q0 -93 43.5 -122.5t140.5 -29.5q77 0 127.5 13.5t77.5 54t27 116.5v204h-8q-36 -78 -109.5 -111t-170.5 -33q-94 0 -172.5 27.5t-130.5 88.5
t-65 156q-12 108 -12 224q0 118 14 204t52 147t114 95t196 34q80 0 130.5 -12t87.5 -44t78 -100l-4 144h220zM236 484v-60q0 -97 13 -149.5t58.5 -79.5t140.5 -27q101 0 147 35t57.5 92.5t11.5 168.5v20q0 160 -38 232t-182 72q-87 0 -131 -21.5t-60.5 -72t-16.5 -146.5v-64
z" />
    <glyph glyph-name="h" unicode="h" horiz-adv-x="872" 
d="M232 1364l4 -552q55 96 117.5 128t174.5 32q118 0 193 -31.5t111 -103t36 -189.5v-652h-228v596q0 109 -36 154.5t-144 45.5q-130 0 -179 -58t-49 -190v-548h-224v1368h224z" />
    <glyph glyph-name="i" unicode="i" horiz-adv-x="232" 
d="M224 1364v-200h-228v200h228zM224 -4h-228v960h228v-960z" />
    <glyph glyph-name="j" unicode="j" horiz-adv-x="340" 
d="M336 1360v-196h-228v196h228zM336 -48q0 -140 -56.5 -214t-195.5 -74q-40 0 -88 12v156q68 0 92 34t24 106v984h224v-1004z" />
    <glyph glyph-name="k" unicode="k" 
d="M224 1364v-784h56l268 376h260l-340 -452l408 -508h-276l-320 428h-56v-428h-228v1368h228z" />
    <glyph glyph-name="l" unicode="l" horiz-adv-x="252" 
d="M236 1364v-1368h-232v1368h232z" />
    <glyph glyph-name="m" unicode="m" horiz-adv-x="1472" 
d="M8 956h220l4 -140q48 82 118.5 115t173.5 33q262 0 296 -168h8q37 93 112.5 130.5t187.5 37.5q180 0 258 -77.5t78 -254.5v-636h-232v592q0 74 -12 114t-48 61t-108 21q-65 0 -108.5 -11.5t-75.5 -61t-32 -151.5v-564h-232v596q-3 114 -31 153t-137 39q-77 0 -124.5 -26
t-67.5 -77.5t-20 -128.5v-556h-228v960z" />
    <glyph glyph-name="n" unicode="n" horiz-adv-x="872" 
d="M8 956h216l4 -148q53 86 123.5 123t176.5 37q120 0 194 -29.5t110 -99t36 -187.5v-656h-228v592q0 79 -12.5 120t-50 60.5t-117.5 19.5q-108 0 -166 -53.5t-58 -162.5v-576h-228v960z" />
    <glyph glyph-name="o" unicode="o" horiz-adv-x="916" 
d="M0 516q0 176 37.5 272.5t131 138t267.5 41.5q145 0 232 -20t138 -69.5t72.5 -137t21.5 -233.5q0 -151 -10 -238t-50 -152.5t-126 -99.5t-234 -34q-180 0 -282 34t-150 129t-48 277v92zM232 492v-68q0 -99 9.5 -151.5t51 -84.5t135.5 -32h28q62 0 105.5 8.5t70.5 43.5
q24 40 32 101.5t8 138.5v76q0 128 -38 198t-150 70h-60q-89 0 -130.5 -40.5t-51.5 -100t-10 -159.5z" />
    <glyph glyph-name="p" unicode="p" horiz-adv-x="916" 
d="M16 952h220v-132q55 84 120 114t172 30q163 0 244.5 -54t106.5 -154t25 -272q0 -162 -22.5 -267t-102 -169t-239.5 -64q-76 0 -126.5 11t-92.5 42t-77 91l-4 -532h-224v1356zM240 500v-60q0 -66 8 -115t32 -86t67 -56t113 -19q98 0 143.5 31.5t57 87t11.5 157.5v56
q0 182 -40 240q-26 34 -67 43t-101 9h-12q-65 0 -101.5 -7t-64.5 -38.5t-38 -102.5q-8 -96 -8 -140z" />
    <glyph glyph-name="q" unicode="q" horiz-adv-x="916" 
d="M896 956v-1360h-228v532h-8q-33 -83 -104.5 -113.5t-175.5 -30.5q-119 0 -195 32t-116 92.5t-54.5 145.5t-14.5 206q0 126 11.5 213.5t48 152.5t112 101.5t200.5 36.5q115 0 178.5 -28t117.5 -116v136h228zM236 448q0 -76 6 -126.5t26 -85t65 -53.5t119 -19t119 21
t64.5 59t24 85t4.5 131v20q0 92 -8.5 159t-39.5 101q-26 31 -69.5 39.5t-102.5 8.5q-87 0 -132.5 -28t-60.5 -82.5t-15 -149.5v-32v-48z" />
    <glyph glyph-name="r" unicode="r" horiz-adv-x="744" 
d="M8 956h220l-4 -128h8q35 70 99 105t145 35q103 0 162 -38t80.5 -106t21.5 -172v-64h-208v44q0 60 -7 91t-34.5 50t-86.5 19q-168 0 -168 -224v-572h-228v960z" />
    <glyph glyph-name="s" unicode="s" 
d="M840 696h-220q0 72 -53.5 94t-140.5 22h-46q-74 0 -113 -20.5t-39 -87.5q0 -72 27.5 -96.5t100.5 -27.5q87 -2 184 -5.5t170.5 -25t119.5 -79.5t46 -170q0 -132 -52.5 -201.5t-142.5 -92t-229 -22.5q-105 0 -173.5 6t-134 31t-105 80.5t-39.5 146.5v52h232
q0 -93 35.5 -124.5t128.5 -31.5h72q100 0 142 23t42 113q0 68 -32 90t-104 22q-81 2 -184 5.5t-173 28t-110.5 87.5t-40.5 179q0 124 55 185t140.5 78t212.5 17q121 0 213 -18.5t151.5 -79.5t59.5 -178z" />
    <glyph glyph-name="t" unicode="t" horiz-adv-x="764" 
d="M724 956v-172h-364v-488q0 -76 15.5 -106t84.5 -30q71 0 91.5 38.5t20.5 117.5v48h188q4 -16 4 -52q0 -118 -28 -188.5t-95 -105t-189 -34.5q-117 0 -185.5 23t-101.5 85.5t-33 175.5v516h-124v172h124v212h228v-212h364z" />
    <glyph glyph-name="u" unicode="u" horiz-adv-x="872" 
d="M864 952v-956h-216l4 156h-8q-46 -97 -117.5 -132.5t-190.5 -35.5q-324 0 -324 328v640h228v-588q0 -77 12 -118t49.5 -61.5t110.5 -20.5q96 0 144 27t64 80.5t16 148.5v532h228z" />
    <glyph glyph-name="v" unicode="v" horiz-adv-x="936" 
d="M924 956l-276 -960h-348l-288 960h232l228 -800l212 800h240z" />
    <glyph glyph-name="w" unicode="w" horiz-adv-x="1448" 
d="M1444 956l-216 -960h-328l-176 768l-172 -768h-332l-216 960h224l164 -804h4l184 804h288l184 -804h8l164 804h220z" />
    <glyph glyph-name="x" unicode="x" horiz-adv-x="936" 
d="M900 956l-276 -456l308 -504h-272l-192 352l-188 -352h-276l316 504l-280 456h264l164 -308l168 308h264z" />
    <glyph glyph-name="y" unicode="y" horiz-adv-x="936" 
d="M920 956l-256 -1016q-29 -123 -65 -201t-107 -122.5t-192 -44.5q-64 0 -92 8v164q24 -6 45 -6q140 0 191 258h-112l-316 960h236l244 -816l188 816h236z" />
    <glyph glyph-name="z" unicode="z" horiz-adv-x="808" 
d="M52 956h740v-192l-516 -596h516v-172h-780v200l508 592h-468v168z" />
    <glyph glyph-name="braceleft" unicode="{" horiz-adv-x="576" 
d="M248 496q70 -39 95 -97t25 -147v-248q0 -75 19 -113.5t60.5 -52.5t116.5 -14v-212h-44q-144 0 -224 16t-128 80.5t-48 203.5v304q0 77 -24.5 124t-91.5 64v200q65 14 90.5 59t25.5 117v324q0 69 22 131t68.5 100.5t117.5 44.5q64 8 192 8h44v-228q-104 0 -148 -24
q-32 -21 -40 -57t-8 -91v-248q0 -91 -24.5 -146.5t-95.5 -97.5z" />
    <glyph glyph-name="bar" unicode="|" horiz-adv-x="340" 
d="M88 1360h248v-1704h-248v1704z" />
    <glyph glyph-name="braceright" unicode="}" horiz-adv-x="576" 
d="M320 496q-70 42 -93 99.5t-23 148.5v248q0 109 -42.5 142.5t-153.5 33.5v216h120q90 0 147.5 -13t96 -45.5t57.5 -91t19 -150.5v-304q0 -77 24.5 -124.5t91.5 -67.5v-192q-116 -32 -116 -180v-324q0 -73 -20.5 -134t-67 -98.5t-120.5 -43.5q-47 -5 -116 -5
q-29 0 -53.5 0.5t-62.5 0.5v224q110 0 153 34.5t43 141.5v248q0 90 23 143.5t93 92.5z" />
    <glyph glyph-name="asciitilde" unicode="~" horiz-adv-x="1000" 
d="M128 500l-124 104q51 116 122 188t178 72q50 0 99 -18t117 -52.5t102 -48t78 -13.5q57 0 96 36.5t72 99.5l124 -104q-122 -260 -304 -260q-45 0 -89.5 15.5t-106.5 47.5t-104 49t-92 20q-54 0 -94 -38t-74 -98z" />
    <glyph glyph-name="DEL" horiz-adv-x="872" 
d="M864 952v-956h-216l4 156h-8q-46 -97 -117.5 -132.5t-190.5 -35.5q-324 0 -324 328v640h228v-588q0 -77 12 -118t49.5 -61.5t110.5 -20.5q96 0 144 27t64 80.5t16 148.5v532h228z" />
    <glyph glyph-name="divide" unicode="&#xf7;" horiz-adv-x="232" 
d="M228 248v-252h-228v252h228zM228 704h-228v252h228v-252z" />
    <glyph glyph-name="divide" unicode="&#x447;" horiz-adv-x="232" 
d="M228 248v-252h-228v252h228zM228 704h-228v252h228v-252z" />
    <glyph glyph-name="_extra1" horiz-adv-x="936" 
d="M920 956l-256 -1016q-29 -123 -65 -201t-107 -122.5t-192 -44.5q-64 0 -92 8v164q24 -6 45 -6q140 0 191 258h-112l-316 960h236l244 -816l188 816h236z" />
    <glyph glyph-name="_extra2" horiz-adv-x="872" 
d="M864 952v-956h-216l4 156h-8q-46 -97 -117.5 -132.5t-190.5 -35.5q-324 0 -324 328v640h228v-588q0 -77 12 -118t49.5 -61.5t110.5 -20.5q96 0 144 27t64 80.5t16 148.5v532h228z" />
    <glyph glyph-name="_extra3" horiz-adv-x="276" 
d="M272 1364v-1368h-260v1368h260z" />
    <glyph glyph-name="cent" unicode="&#xa2;" horiz-adv-x="232" 
d="M224 1364v-200h-228v200h228zM224 956v-960h-228v960h228z" />
    <glyph glyph-name="logicalnot" unicode="&#xac;" horiz-adv-x="1276" 
d="M1264 1364v-1368h-432l-580 1144h-8l8 -1144h-252v1368h432l576 -1144h8l-8 1144h256z" />
    <glyph glyph-name="onequarter" unicode="&#xbc;" horiz-adv-x="980" 
d="M4 776h416v404h128v-404h416v-120h-416v-404h-128v404h-416v120z" />
    <glyph glyph-name="Agrave" unicode="&#xc0;" horiz-adv-x="1324" 
d="M956 260h-592l-84 -264h-272l456 1368h384l464 -1368h-268zM660 1164l-236 -708h472z" />
    <glyph glyph-name="Agrave" unicode="&#x410;" horiz-adv-x="1324" 
d="M956 260h-592l-84 -264h-272l456 1368h384l464 -1368h-268zM660 1164l-236 -708h472z" />
    <glyph glyph-name="Aacute" unicode="&#xc1;" horiz-adv-x="1132" 
d="M276 572v-360h332q97 0 145.5 10.5t75.5 45t39 112.5q-3 113 -50.5 152.5t-165.5 39.5h-376zM736 -4h-720v1368h1004v-224l-744 4v-352h476q145 -1 228 -56.5t114.5 -144t33.5 -199.5q0 -140 -37 -227t-122 -128t-233 -41z" />
    <glyph glyph-name="Aacute" unicode="&#x411;" horiz-adv-x="1132" 
d="M276 572v-360h332q97 0 145.5 10.5t75.5 45t39 112.5q-3 113 -50.5 152.5t-165.5 39.5h-376zM736 -4h-720v1368h1004v-224l-744 4v-352h476q145 -1 228 -56.5t114.5 -144t33.5 -199.5q0 -140 -37 -227t-122 -128t-233 -41z" />
    <glyph glyph-name="Acircumflex" unicode="&#xc2;" horiz-adv-x="1132" 
d="M16 -4v1368h700q194 0 285 -74.5t91 -269.5q0 -91 -13 -150.5t-55.5 -102t-123.5 -59.5v-8q128 -20 178 -94t50 -214t-37 -227t-122 -128t-233 -41h-720zM652 600h-376v-388h332q97 0 149.5 12.5t79.5 54.5t27 129q0 118 -46 155t-166 37zM664 1148h-388v-356h332
q86 0 134 13.5t69 55t21 123.5q0 95 -35.5 129.5t-132.5 34.5z" />
    <glyph glyph-name="Acircumflex" unicode="&#x412;" horiz-adv-x="1132" 
d="M16 -4v1368h700q194 0 285 -74.5t91 -269.5q0 -91 -13 -150.5t-55.5 -102t-123.5 -59.5v-8q128 -20 178 -94t50 -214t-37 -227t-122 -128t-233 -41h-720zM652 600h-376v-388h332q97 0 149.5 12.5t79.5 54.5t27 129q0 118 -46 155t-166 37zM664 1148h-388v-356h332
q86 0 134 13.5t69 55t21 123.5q0 95 -35.5 129.5t-132.5 34.5z" />
    <glyph glyph-name="Atilde" unicode="&#xc3;" horiz-adv-x="916" 
d="M276 1144v-584v-564h-264v1368h904v-220h-640z" />
    <glyph glyph-name="Atilde" unicode="&#x413;" horiz-adv-x="916" 
d="M276 1144v-584v-564h-264v1368h904v-220h-640z" />
    <glyph glyph-name="Adieresis" unicode="&#xc4;" horiz-adv-x="1448" 
d="M1432 -124h-260v120h-888v-120h-268v348h128l384 1140h384l384 -1140h136v-348zM420 224h616l-312 940z" />
    <glyph glyph-name="Adieresis" unicode="&#x414;" horiz-adv-x="1448" 
d="M1432 -124h-260v120h-888v-120h-268v348h128l384 1140h384l384 -1140h136v-348zM420 224h616l-312 940z" />
    <glyph glyph-name="Aring" unicode="&#xc5;" horiz-adv-x="960" 
d="M260 1148v-356h640v-192h-640v-388h676v-216h-932v1368h928v-216h-672z" />
    <glyph glyph-name="Aring" unicode="&#x415;" horiz-adv-x="960" 
d="M260 1148v-356h640v-192h-640v-388h676v-216h-932v1368h928v-216h-672z" />
    <glyph glyph-name="AE" unicode="&#xc6;" horiz-adv-x="1960" 
d="M1112 1360v-556h92l404 556h288l-492 -664l540 -704h-292l-448 588h-92v-588h-264v588h-96l-444 -588h-296l544 704l-492 664h284l404 -556h96v556h264z" />
    <glyph glyph-name="AE" unicode="&#x416;" horiz-adv-x="1960" 
d="M1112 1360v-556h92l404 556h288l-492 -664l540 -704h-292l-448 588h-92v-588h-264v588h-96l-444 -588h-296l544 704l-492 664h284l404 -556h96v556h264z" />
    <glyph glyph-name="Ccedilla" unicode="&#xc7;" horiz-adv-x="1152" 
d="M492 1168q-84 0 -129.5 -17t-66 -61t-20.5 -126h-252v52q0 164 66.5 242t167.5 96t282 18l196 -8q194 0 287 -75t93 -269q0 -86 -14 -147.5t-57 -104.5t-125 -60v-8q128 -20 178 -94t50 -214t-37 -227t-122 -128t-233 -41l-208 -4q-143 0 -232 9.5t-157 46t-105.5 117
t-37.5 215.5v56h248q0 -78 10.5 -125.5t47 -77t110.5 -29.5h196q94 0 148 14.5t81 58.5t27 131q0 118 -46 155t-166 37h-372v192h328q87 0 135 13.5t70.5 54.5t22.5 124q0 180 -196 180z" />
    <glyph glyph-name="Ccedilla" unicode="&#x417;" horiz-adv-x="1152" 
d="M492 1168q-84 0 -129.5 -17t-66 -61t-20.5 -126h-252v52q0 164 66.5 242t167.5 96t282 18l196 -8q194 0 287 -75t93 -269q0 -86 -14 -147.5t-57 -104.5t-125 -60v-8q128 -20 178 -94t50 -214t-37 -227t-122 -128t-233 -41l-208 -4q-143 0 -232 9.5t-157 46t-105.5 117
t-37.5 215.5v56h248q0 -78 10.5 -125.5t47 -77t110.5 -29.5h196q94 0 148 14.5t81 58.5t27 131q0 118 -46 155t-166 37h-372v192h328q87 0 135 13.5t70.5 54.5t22.5 124q0 180 -196 180z" />
    <glyph glyph-name="Egrave" unicode="&#xc8;" horiz-adv-x="1276" 
d="M8 1364h256l-8 -1144h8l576 1144h432v-1368h-252l8 1144h-8l-576 -1144h-436v1368z" />
    <glyph glyph-name="Egrave" unicode="&#x418;" horiz-adv-x="1276" 
d="M8 1364h256l-8 -1144h8l576 1144h432v-1368h-252l8 1144h-8l-576 -1144h-436v1368z" />
    <glyph glyph-name="Eacute" unicode="&#xc9;" horiz-adv-x="1276" 
d="M8 1364h256l-8 -1144h8l576 1144h432v-1368h-252l8 1144h-8l-576 -1144h-436v1368zM1064 1620v-140h-828v140h828z" />
    <glyph glyph-name="Eacute" unicode="&#x419;" horiz-adv-x="1276" 
d="M8 1364h256l-8 -1144h8l576 1144h432v-1368h-252l8 1144h-8l-576 -1144h-436v1368zM1064 1620v-140h-828v140h828z" />
    <glyph glyph-name="Ecircumflex" unicode="&#xca;" horiz-adv-x="1236" 
d="M264 1364v-556h124l452 556h324l-552 -664l608 -704h-332l-500 588h-124v-588h-260v1368h260z" />
    <glyph glyph-name="Ecircumflex" unicode="&#x41a;" horiz-adv-x="1236" 
d="M264 1364v-556h124l452 556h324l-552 -664l608 -704h-332l-500 588h-124v-588h-260v1368h260z" />
    <glyph glyph-name="Edieresis" unicode="&#xcb;" horiz-adv-x="1324" 
d="M956 260l-296 904l-296 -904l-84 -264h-272l456 1368h384l464 -1368h-268z" />
    <glyph glyph-name="Edieresis" unicode="&#x41b;" horiz-adv-x="1324" 
d="M956 260l-296 904l-296 -904l-84 -264h-272l456 1368h384l464 -1368h-268z" />
    <glyph glyph-name="Igrave" unicode="&#xcc;" horiz-adv-x="1620" 
d="M1600 1364v-1368h-256l8 1152l-428 -1152h-236l-436 1148l12 -1148h-256v1368h424l368 -1012h8l364 1012h428z" />
    <glyph glyph-name="Igrave" unicode="&#x41c;" horiz-adv-x="1620" 
d="M1600 1364v-1368h-256l8 1152l-428 -1152h-236l-436 1148l12 -1148h-256v1368h424l368 -1012h8l364 1012h428z" />
    <glyph glyph-name="Iacute" unicode="&#xcd;" horiz-adv-x="1192" 
d="M1172 1364v-1368h-264v584h-636v-584h-260v1368h260v-560h636v560h264z" />
    <glyph glyph-name="Iacute" unicode="&#x41d;" horiz-adv-x="1192" 
d="M1172 1364v-1368h-264v584h-636v-584h-260v1368h260v-560h636v560h264z" />
    <glyph glyph-name="Icircumflex" unicode="&#xce;" horiz-adv-x="1192" 
d="M8 664q0 207 14.5 326.5t64.5 206.5t162 133t303 46q142 0 244 -13t185 -54t133.5 -125.5t57.5 -223.5q4 -60 4 -184v-92q0 -225 -14 -344t-70 -199t-178.5 -118.5t-341.5 -38.5q-158 0 -265 24.5t-174 84t-98 164t-31 267.5q0 27 2 74t2 66zM272 668q0 -160 4 -240
q7 -99 40 -146t90.5 -60.5t161.5 -13.5q132 0 200.5 19t102 79t37.5 186q4 112 4 332q0 138 -18.5 204t-77.5 95t-188 29q-153 0 -225 -21.5t-98.5 -72.5t-29 -162t-3.5 -228z" />
    <glyph glyph-name="Icircumflex" unicode="&#x41e;" horiz-adv-x="1192" 
d="M8 664q0 207 14.5 326.5t64.5 206.5t162 133t303 46q142 0 244 -13t185 -54t133.5 -125.5t57.5 -223.5q4 -60 4 -184v-92q0 -225 -14 -344t-70 -199t-178.5 -118.5t-341.5 -38.5q-158 0 -265 24.5t-174 84t-98 164t-31 267.5q0 27 2 74t2 66zM272 668q0 -160 4 -240
q7 -99 40 -146t90.5 -60.5t161.5 -13.5q132 0 200.5 19t102 79t37.5 186q4 112 4 332q0 138 -18.5 204t-77.5 95t-188 29q-153 0 -225 -21.5t-98.5 -72.5t-29 -162t-3.5 -228z" />
    <glyph glyph-name="Idieresis" unicode="&#xcf;" horiz-adv-x="1192" 
d="M1172 1364v-1368h-264v584v560h-636v-560v-584h-260v1368h260h636h264z" />
    <glyph glyph-name="Idieresis" unicode="&#x41f;" horiz-adv-x="1192" 
d="M1172 1364v-1368h-264v584v560h-636v-560v-584h-260v1368h260h636h264z" />
    <glyph glyph-name="Eth" unicode="&#xd0;" horiz-adv-x="1108" 
d="M8 -4v1368h544q200 0 312 -33t168 -133t56 -298q0 -129 -19 -219.5t-85 -148.5q-40 -39 -86.5 -57.5t-105.5 -26t-124 -7.5t-100 -1h-308v-444h-252zM260 664h296q112 0 165 12.5t78 60t25 155.5q0 105 -17 158t-66.5 73.5t-156.5 20.5h-324v-480z" />
    <glyph glyph-name="Eth" unicode="&#x420;" horiz-adv-x="1108" 
d="M8 -4v1368h544q200 0 312 -33t168 -133t56 -298q0 -129 -19 -219.5t-85 -148.5q-40 -39 -86.5 -57.5t-105.5 -26t-124 -7.5t-100 -1h-308v-444h-252zM260 664h296q112 0 165 12.5t78 60t25 155.5q0 105 -17 158t-66.5 73.5t-156.5 20.5h-324v-480z" />
    <glyph glyph-name="Ntilde" unicode="&#xd1;" horiz-adv-x="1172" 
d="M904 488h256q0 -18 2 -56t2 -56q0 -117 -35 -194.5t-100 -119.5t-151 -58t-202 -16h-184q-185 0 -289 63t-143.5 182.5t-39.5 306.5q0 50 -2 150t-2 150q0 169 37.5 274.5t112.5 161.5t185 76t281 20h88q131 0 222.5 -26.5t145.5 -109.5q23 -33 37 -73t18 -70.5
t7.5 -95.5t5.5 -93h-260q-4 16 -9 91.5t-33.5 109.5t-113.5 39q-40 4 -116 4h-48q-80 0 -140 -11t-92 -45q-58 -58 -58 -201q1 -29 1.5 -53t0.5 -58q0 -176 4 -264q0 -138 28.5 -201.5t95 -83t208.5 -19.5q99 0 154.5 10t92.5 51.5t37 126.5q0 16 -2 45t-2 43z" />
    <glyph glyph-name="Ntilde" unicode="&#x421;" horiz-adv-x="1172" 
d="M904 488h256q0 -18 2 -56t2 -56q0 -117 -35 -194.5t-100 -119.5t-151 -58t-202 -16h-184q-185 0 -289 63t-143.5 182.5t-39.5 306.5q0 50 -2 150t-2 150q0 169 37.5 274.5t112.5 161.5t185 76t281 20h88q131 0 222.5 -26.5t145.5 -109.5q23 -33 37 -73t18 -70.5
t7.5 -95.5t5.5 -93h-260q-4 16 -9 91.5t-33.5 109.5t-113.5 39q-40 4 -116 4h-48q-80 0 -140 -11t-92 -45q-58 -58 -58 -201q1 -29 1.5 -53t0.5 -58q0 -176 4 -264q0 -138 28.5 -201.5t95 -83t208.5 -19.5q99 0 154.5 10t92.5 51.5t37 126.5q0 16 -2 45t-2 43z" />
    <glyph glyph-name="Ograve" unicode="&#xd2;" horiz-adv-x="1064" 
d="M660 1132v-1136h-264v1136h-392v232h1060v-232h-404z" />
    <glyph glyph-name="Ograve" unicode="&#x422;" horiz-adv-x="1064" 
d="M660 1132v-1136h-264v1136h-392v232h1060v-232h-404z" />
    <glyph glyph-name="Oacute" unicode="&#xd3;" horiz-adv-x="1276" 
d="M1268 1364l-372 -888l-196 -476h-292l108 236l-508 1128h296l340 -816l320 816h304z" />
    <glyph glyph-name="Oacute" unicode="&#x423;" horiz-adv-x="1276" 
d="M1268 1364l-372 -888l-196 -476h-292l108 236l-508 1128h296l340 -816l320 816h304z" />
    <glyph glyph-name="Ocircumflex" unicode="&#xd4;" horiz-adv-x="1788" 
d="M1524 720q0 165 -53 246.5t-199 81.5l-252 -4v-632h224q116 0 176 30t82 94.5t22 183.5zM516 1048q-149 0 -202.5 -81t-53.5 -247q0 -90 12 -145.5t44 -92.5t85 -53.5t143 -16.5h220v632zM764 184h-220q-127 4 -219.5 25.5t-172.5 82.5q-48 34 -80.5 105t-48 151
t-15.5 152q0 153 34 262t100 177t166.5 100.5t239.5 32.5l216 -4v96h256v-96l216 4q139 0 240 -32.5t167.5 -100.5t99.5 -177t33 -262q0 -66 -18 -155.5t-53 -165.5t-81 -111q-79 -58 -151 -69t-229 -15h-224v-188h-256v188z" />
    <glyph glyph-name="Ocircumflex" unicode="&#x424;" horiz-adv-x="1788" 
d="M1524 720q0 165 -53 246.5t-199 81.5l-252 -4v-632h224q116 0 176 30t82 94.5t22 183.5zM516 1048q-149 0 -202.5 -81t-53.5 -247q0 -90 12 -145.5t44 -92.5t85 -53.5t143 -16.5h220v632zM764 184h-220q-127 4 -219.5 25.5t-172.5 82.5q-48 34 -80.5 105t-48 151
t-15.5 152q0 153 34 262t100 177t166.5 100.5t239.5 32.5l216 -4v96h256v-96l216 4q139 0 240 -32.5t167.5 -100.5t99.5 -177t33 -262q0 -66 -18 -155.5t-53 -165.5t-81 -111q-79 -58 -151 -69t-229 -15h-224v-188h-256v188z" />
    <glyph glyph-name="Otilde" unicode="&#xd5;" horiz-adv-x="1324" 
d="M1280 1364l-404 -660l436 -708h-304l-344 576l-344 -576h-308l448 708l-416 660h304l316 -544l316 544h300z" />
    <glyph glyph-name="Otilde" unicode="&#x425;" horiz-adv-x="1324" 
d="M1280 1364l-404 -660l436 -708h-304l-344 576l-344 -576h-308l448 708l-416 660h304l316 -544l316 544h300z" />
    <glyph glyph-name="Odieresis" unicode="&#xd6;" horiz-adv-x="1320" 
d="M1044 0h-132h-636h-260v1368h260v-584v-560h636v560v584h264v-1144h128v-344h-260v120z" />
    <glyph glyph-name="Odieresis" unicode="&#x426;" horiz-adv-x="1320" 
d="M1044 0h-132h-636h-260v1368h260v-584v-560h636v560v584h264v-1144h128v-344h-260v120z" />
    <glyph glyph-name="OE" unicode="&#x152;" horiz-adv-x="1192" 
d="M272 1364v-640q0 -45 38 -78.5t90 -33.5h512l-4 752h264v-1368h-264l4 392h-632q-117 0 -192.5 80.5t-75.5 191.5v704h260z" />
    <glyph glyph-name="Oslash" unicode="&#xd8;" horiz-adv-x="1960" 
d="M1056 -4h-788h-260v1368h260v-584v-556h576v1136h268v-1136h580v556v584h260v-1368h-260h-636z" />
    <glyph glyph-name="Oslash" unicode="&#x428;" horiz-adv-x="1960" 
d="M1056 -4h-788h-260v1368h260v-584v-556h576v1136h268v-1136h580v556v584h260v-1368h-260h-636z" />
    <glyph glyph-name="Ugrave" unicode="&#xd9;" horiz-adv-x="2112" 
d="M1056 -4h-788h-260v1368h260v-584v-556h576v1136h268v-1136h580v556v584h260v-1144h140v-344h-260v120h-140h-636z" />
    <glyph glyph-name="Ugrave" unicode="&#x429;" horiz-adv-x="2112" 
d="M1056 -4h-788h-260v1368h260v-584v-556h576v1136h268v-1136h580v556v584h260v-1144h140v-344h-260v120h-140h-636z" />
    <glyph glyph-name="Uacute" unicode="&#xda;" horiz-adv-x="1340" 
d="M808 696h-300v-480h324q108 0 157.5 20.5t66 71.5t16.5 160q0 108 -25 155.5t-77 60t-162 12.5zM508 1364v-444h308q36 -1 110 -2t121.5 -7.5t95.5 -25.5t89 -57q48 -40 71.5 -99.5t30 -120t6.5 -148.5q0 -198 -56 -298t-168 -133t-312 -33h-548v1136h-252v232h504z" />
    <glyph glyph-name="Uacute" unicode="&#x42a;" horiz-adv-x="1340" 
d="M808 696h-300v-480h324q108 0 157.5 20.5t66 71.5t16.5 160q0 108 -25 155.5t-77 60t-162 12.5zM508 1364v-444h308q36 -1 110 -2t121.5 -7.5t95.5 -25.5t89 -57q48 -40 71.5 -99.5t30 -120t6.5 -148.5q0 -198 -56 -298t-168 -133t-312 -33h-548v1136h-252v232h504z" />
    <glyph glyph-name="Ucircumflex" unicode="&#xdb;" horiz-adv-x="1532" 
d="M272 216h320q108 0 157.5 20.5t66 71.5t16.5 160q0 108 -25 155.5t-77 60t-162 12.5h-296v-480zM1256 -4v1368h260v-1368h-260zM272 1360v-440h304q36 -1 110 -2t121.5 -7.5t95.5 -25.5t89 -57q48 -40 71.5 -99.5t30 -120t6.5 -148.5q0 -198 -56 -298t-168 -133t-312 -33
h-548v1364h256z" />
    <glyph glyph-name="Ucircumflex" unicode="&#x42b;" horiz-adv-x="1532" 
d="M272 216h320q108 0 157.5 20.5t66 71.5t16.5 160q0 108 -25 155.5t-77 60t-162 12.5h-296v-480zM1256 -4v1368h260v-1368h-260zM272 1360v-440h304q36 -1 110 -2t121.5 -7.5t95.5 -25.5t89 -57q48 -40 71.5 -99.5t30 -120t6.5 -148.5q0 -198 -56 -298t-168 -133t-312 -33
h-548v1364h256z" />
    <glyph glyph-name="Udieresis" unicode="&#xdc;" horiz-adv-x="1084" 
d="M0 1360h252v-440h308q36 -1 110 -2t121.5 -7.5t95.5 -25.5t89 -57q48 -40 71.5 -99.5t30 -120t6.5 -148.5q0 -198 -56 -298t-168 -133t-312 -33h-548v1364zM252 696v-480h324q108 0 157.5 20.5t66 71.5t16.5 160q0 108 -25 155.5t-77 60t-162 12.5h-300z" />
    <glyph glyph-name="Udieresis" unicode="&#x42c;" horiz-adv-x="1084" 
d="M0 1360h252v-440h308q36 -1 110 -2t121.5 -7.5t95.5 -25.5t89 -57q48 -40 71.5 -99.5t30 -120t6.5 -148.5q0 -198 -56 -298t-168 -133t-312 -33h-548v1364zM252 696v-480h324q108 0 157.5 20.5t66 71.5t16.5 160q0 108 -25 155.5t-77 60t-162 12.5h-300z" />
    <glyph glyph-name="Yacute" unicode="&#xdd;" horiz-adv-x="1172" 
d="M536 1372q200 0 314 -19.5t180.5 -74.5t94 -158.5t27.5 -279.5q0 -50 -2 -150t-2 -150q0 -143 -21 -241.5t-72.5 -168.5t-146.5 -106t-236 -36h-180q-116 0 -201.5 16t-151 58.5t-100.5 119.5t-35 194q0 18 -2 54t-2 54h252q0 -14 4 -41t4 -43q0 -85 37 -126.5
t92.5 -51.5t154.5 -10q141 0 208 19.5t95.5 83t28.5 201.5q0 11 -2 36t-2 40l-560 4v196h568q0 19 0.5 35.5t0.5 44.5q0 163 -57 220q-32 34 -93.5 45t-142.5 11h-44q-76 0 -116 -4q-85 -5 -113.5 -39t-33.5 -109.5t-9 -91.5h-260q4 76 7 129.5t15 105t42 97.5
q56 83 148.5 109.5t223.5 26.5h88z" />
    <glyph glyph-name="Yacute" unicode="&#x42d;" horiz-adv-x="1172" 
d="M536 1372q200 0 314 -19.5t180.5 -74.5t94 -158.5t27.5 -279.5q0 -50 -2 -150t-2 -150q0 -143 -21 -241.5t-72.5 -168.5t-146.5 -106t-236 -36h-180q-116 0 -201.5 16t-151 58.5t-100.5 119.5t-35 194q0 18 -2 54t-2 54h252q0 -14 4 -41t4 -43q0 -85 37 -126.5
t92.5 -51.5t154.5 -10q141 0 208 19.5t95.5 83t28.5 201.5q0 11 -2 36t-2 40l-560 4v196h568q0 19 0.5 35.5t0.5 44.5q0 163 -57 220q-32 34 -93.5 45t-142.5 11h-44q-76 0 -116 -4q-85 -5 -113.5 -39t-33.5 -109.5t-9 -91.5h-260q4 76 7 129.5t15 105t42 97.5
q56 83 148.5 109.5t223.5 26.5h88z" />
    <glyph glyph-name="Thorn" unicode="&#xde;" horiz-adv-x="1768" 
d="M-4 -4v1368h264v-560h336q5 155 27 256t77.5 172t163.5 107.5t280 36.5q186 0 313.5 -26.5t210 -118t92.5 -271.5q8 -60 8 -184v-92q0 -225 -14.5 -343.5t-70.5 -199t-179.5 -119t-343.5 -38.5q-158 0 -265 24.5t-174 84t-98 164t-31 267.5v56h-332v-584h-264zM868 428
q7 -98 39.5 -145.5t88.5 -61t160 -13.5q132 0 201.5 19t104 78.5t38.5 186.5q4 112 4 332q0 138 -18.5 204t-78.5 95t-191 29q-151 0 -223 -21.5t-98 -73t-28 -155t-3 -234.5q0 -160 4 -240z" />
    <glyph glyph-name="Thorn" unicode="&#x42e;" horiz-adv-x="1768" 
d="M-4 -4v1368h264v-560h336q5 155 27 256t77.5 172t163.5 107.5t280 36.5q186 0 313.5 -26.5t210 -118t92.5 -271.5q8 -60 8 -184v-92q0 -225 -14.5 -343.5t-70.5 -199t-179.5 -119t-343.5 -38.5q-158 0 -265 24.5t-174 84t-98 164t-31 267.5v56h-332v-584h-264zM868 428
q7 -98 39.5 -145.5t88.5 -61t160 -13.5q132 0 201.5 19t104 78.5t38.5 186.5q4 112 4 332q0 138 -18.5 204t-78.5 95t-191 29q-151 0 -223 -21.5t-98 -73t-28 -155t-3 -234.5q0 -160 4 -240z" />
    <glyph glyph-name="germandbls" unicode="&#xdf;" horiz-adv-x="1132" 
d="M1112 -4h-256v460h-368q-16 2 -24 2q-73 0 -128.5 -54.5t-55.5 -127.5l4 -32v-248h-264v300q0 120 60.5 187.5t167.5 76.5v8q-60 14 -95.5 25.5t-64.5 38.5q-40 36 -58 86.5t-22 101t-4 124.5q0 162 45 253t141.5 129t257.5 38h664v-1368zM856 672v464h-384
q-95 0 -137 -26.5t-52.5 -75t-10.5 -150.5q0 -115 48.5 -163.5t167.5 -48.5h368z" />
    <glyph glyph-name="germandbls" unicode="&#x42f;" horiz-adv-x="1132" 
d="M1112 -4h-256v460h-368q-16 2 -24 2q-73 0 -128.5 -54.5t-55.5 -127.5l4 -32v-248h-264v300q0 120 60.5 187.5t167.5 76.5v8q-60 14 -95.5 25.5t-64.5 38.5q-40 36 -58 86.5t-22 101t-4 124.5q0 162 45 253t141.5 129t257.5 38h664v-1368zM856 672v464h-384
q-95 0 -137 -26.5t-52.5 -75t-10.5 -150.5q0 -115 48.5 -163.5t167.5 -48.5h368z" />
    <glyph glyph-name="agrave" unicode="&#xe0;" 
d="M272 672h-232q0 100 29.5 159t82.5 87t121 35t167 7q153 0 246.5 -22t147.5 -95.5t54 -222.5v-624h-228l8 120q-35 -59 -81 -87.5t-99 -36.5t-132 -8q-111 0 -187 25t-118.5 88t-42.5 175q0 117 41 184.5t119 93.5t196 26q107 0 174.5 -18t113.5 -82l4 144
q0 81 -18.5 121.5t-62 55.5t-123.5 15q-92 0 -136 -29.5t-44 -110.5zM424 144q107 0 169.5 26.5t62.5 117.5q0 86 -59.5 113t-164.5 27q-91 0 -143.5 -26.5t-52.5 -105.5q0 -68 20 -100.5t58 -42t110 -9.5z" />
    <glyph glyph-name="agrave" unicode="&#x430;" 
d="M272 672h-232q0 100 29.5 159t82.5 87t121 35t167 7q153 0 246.5 -22t147.5 -95.5t54 -222.5v-624h-228l8 120q-35 -59 -81 -87.5t-99 -36.5t-132 -8q-111 0 -187 25t-118.5 88t-42.5 175q0 117 41 184.5t119 93.5t196 26q107 0 174.5 -18t113.5 -82l4 144
q0 81 -18.5 121.5t-62 55.5t-123.5 15q-92 0 -136 -29.5t-44 -110.5zM424 144q107 0 169.5 26.5t62.5 117.5q0 86 -59.5 113t-164.5 27q-91 0 -143.5 -26.5t-52.5 -105.5q0 -68 20 -100.5t58 -42t110 -9.5z" />
    <glyph glyph-name="aacute" unicode="&#xe1;" horiz-adv-x="916" 
d="M0 944q18 138 54 206t118.5 97t239.5 29q19 -2 52 -2q160 0 160 94h252q-1 -29 -2 -60t-6.5 -55t-19.5 -49q-32 -48 -103.5 -64.5t-175.5 -16.5q-27 0 -49.5 0.5t-55.5 0.5h-53q-63 0 -96.5 -8.5t-52 -40t-18.5 -99.5v-152h8q39 81 108 112.5t168 31.5q127 0 201 -27.5
t111.5 -84t48.5 -137.5t11 -211q0 -151 -10 -238t-50 -152.5t-126 -99.5t-234 -34q-180 0 -282 34t-150 129t-48 277v92v428zM672 448v76q0 104 -12 157t-56.5 82t-139.5 29q-75 0 -121 -20.5t-70 -59.5t-32.5 -92.5t-8.5 -127.5v-68q0 -99 9.5 -151.5t51 -84.5t135.5 -32
h28q62 0 105.5 8.5t70.5 43.5q24 40 32 101.5t8 138.5z" />
    <glyph glyph-name="aacute" unicode="&#x431;" horiz-adv-x="916" 
d="M0 944q18 138 54 206t118.5 97t239.5 29q19 -2 52 -2q160 0 160 94h252q-1 -29 -2 -60t-6.5 -55t-19.5 -49q-32 -48 -103.5 -64.5t-175.5 -16.5q-27 0 -49.5 0.5t-55.5 0.5h-53q-63 0 -96.5 -8.5t-52 -40t-18.5 -99.5v-152h8q39 81 108 112.5t168 31.5q127 0 201 -27.5
t111.5 -84t48.5 -137.5t11 -211q0 -151 -10 -238t-50 -152.5t-126 -99.5t-234 -34q-180 0 -282 34t-150 129t-48 277v92v428zM672 448v76q0 104 -12 157t-56.5 82t-139.5 29q-75 0 -121 -20.5t-70 -59.5t-32.5 -92.5t-8.5 -127.5v-68q0 -99 9.5 -151.5t51 -84.5t135.5 -32
h28q62 0 105.5 8.5t70.5 43.5q24 40 32 101.5t8 138.5z" />
    <glyph glyph-name="acircumflex" unicode="&#xe2;" 
d="M648 260q0 55 -22 80t-58.5 31.5t-103.5 8.5h-208v-228h228q30 -4 44 -4q107 0 120 112zM188 952q140 4 187 4q189 0 280 -21t122 -61.5t47 -121.5q-2 -43 -5 -87.5t-15.5 -72.5t-49.5 -52t-106 -40q236 0 236 -248q-1 -88 -53 -145t-140.5 -82.5t-205.5 -25.5
q-9 0 -16.5 0.5t-20.5 0.5h-436v952h176zM600 676q-22 66 -48.5 89t-115.5 23h-180v-252h180q28 -2 38 -2q67 0 96.5 33.5t29.5 108.5z" />
    <glyph glyph-name="acircumflex" unicode="&#x432;" 
d="M648 260q0 55 -22 80t-58.5 31.5t-103.5 8.5h-208v-228h228q30 -4 44 -4q107 0 120 112zM188 952q140 4 187 4q189 0 280 -21t122 -61.5t47 -121.5q-2 -43 -5 -87.5t-15.5 -72.5t-49.5 -52t-106 -40q236 0 236 -248q-1 -88 -53 -145t-140.5 -82.5t-205.5 -25.5
q-9 0 -16.5 0.5t-20.5 0.5h-436v952h176zM600 676q-22 66 -48.5 89t-115.5 23h-180v-252h180q28 -2 38 -2q67 0 96.5 33.5t29.5 108.5z" />
    <glyph glyph-name="atilde" unicode="&#xe3;" horiz-adv-x="808" 
d="M800 784h-540v-788h-244v164v796h784v-172z" />
    <glyph glyph-name="atilde" unicode="&#x433;" horiz-adv-x="808" 
d="M800 784h-540v-788h-244v164v796h784v-172z" />
    <glyph glyph-name="adieresis" unicode="&#xe4;" 
d="M888 952v-976q0 -160 -44.5 -248t-139 -122t-256.5 -34q-138 0 -236.5 24t-143.5 112q-13 23 -20 56.5t-9 72.5t-3 59h216q0 -93 43.5 -122.5t140.5 -29.5q77 0 127.5 13.5t77.5 54t27 116.5v204h-8q-36 -78 -109.5 -111t-170.5 -33q-94 0 -172.5 27.5t-130.5 88.5
t-65 156q-12 108 -12 224q0 118 14 204t52 147t114 95t196 34q80 0 130.5 -12t87.5 -44t78 -100l-4 144h220zM236 424q0 -97 13 -149.5t58.5 -79.5t140.5 -27q101 0 147 35t57.5 92.5t11.5 168.5v20q0 160 -38 232t-182 72q-87 0 -131 -21.5t-60.5 -72t-16.5 -146.5v-64v-60
z" />
    <glyph glyph-name="adieresis" unicode="&#x434;" 
d="M888 952v-976q0 -160 -44.5 -248t-139 -122t-256.5 -34q-138 0 -236.5 24t-143.5 112q-13 23 -20 56.5t-9 72.5t-3 59h216q0 -93 43.5 -122.5t140.5 -29.5q77 0 127.5 13.5t77.5 54t27 116.5v204h-8q-36 -78 -109.5 -111t-170.5 -33q-94 0 -172.5 27.5t-130.5 88.5
t-65 156q-12 108 -12 224q0 118 14 204t52 147t114 95t196 34q80 0 130.5 -12t87.5 -44t78 -100l-4 144h220zM236 424q0 -97 13 -149.5t58.5 -79.5t140.5 -27q101 0 147 35t57.5 92.5t11.5 168.5v20q0 160 -38 232t-182 72q-87 0 -131 -21.5t-60.5 -72t-16.5 -146.5v-64v-60
z" />
    <glyph glyph-name="aring" unicode="&#xe5;" 
d="M656 304h224q4 -12 4 -36q0 -122 -57 -184t-147 -81t-216 -19q-151 0 -243 27.5t-138 86t-62.5 151t-16.5 247.5q0 131 17.5 218t65 144.5t130 83.5t219.5 26q141 0 226 -22.5t133.5 -73.5t68.5 -138t20 -230l-4 -68h-648q0 -94 5 -140t26.5 -79t69.5 -49t135 -16
q88 0 138 26.5t50 105.5v20zM444 800q-84 0 -126.5 -14.5t-61 -55t-20.5 -122.5q0 -4 -2 -15t-2 -17h428q0 97 -15 143t-59.5 63.5t-141.5 17.5z" />
    <glyph glyph-name="aring" unicode="&#x435;" 
d="M656 304h224q4 -12 4 -36q0 -122 -57 -184t-147 -81t-216 -19q-151 0 -243 27.5t-138 86t-62.5 151t-16.5 247.5q0 131 17.5 218t65 144.5t130 83.5t219.5 26q141 0 226 -22.5t133.5 -73.5t68.5 -138t20 -230l-4 -68h-648q0 -94 5 -140t26.5 -79t69.5 -49t135 -16
q88 0 138 26.5t50 105.5v20zM444 800q-84 0 -126.5 -14.5t-61 -55t-20.5 -122.5q0 -4 -2 -15t-2 -17h428q0 97 -15 143t-59.5 63.5t-141.5 17.5z" />
    <glyph glyph-name="ae" unicode="&#xe6;" horiz-adv-x="1536" 
d="M648 -4v428h-56l-316 -428h-280l408 508l-340 452h260l268 -376h56v372h236v-372h52l272 376h260l-340 -452l404 -508h-276l-320 428h-52v-428h-236z" />
    <glyph glyph-name="ae" unicode="&#x436;" horiz-adv-x="1536" 
d="M648 -4v428h-56l-316 -428h-280l408 508l-340 452h260l268 -376h56v372h236v-372h52l272 376h260l-340 -452l404 -508h-276l-320 428h-52v-428h-236z" />
    <glyph glyph-name="ccedilla" unicode="&#xe7;" 
d="M648 260q0 56 -24.5 84t-68.5 37t-103 11h-164v176h148q15 -1 43 -1q71 0 108 21.5t41 83.5q-20 63 -54 87.5t-126 24.5q-80 0 -122.5 -11t-62 -47.5t-19.5 -113.5h-216q-4 8 -4 32q0 130 54.5 199t145.5 91t228 22q162 -6 243.5 -36t111 -77t45.5 -123
q-6 -85 -16 -121.5t-51.5 -67t-132.5 -51.5q121 0 176.5 -54.5t55.5 -173.5q-1 -88 -56.5 -149.5t-150.5 -92t-211 -30.5h-30q-115 0 -194.5 17.5t-128.5 57.5t-73 112.5t-24 184.5h224q0 -85 20 -128t67 -57.5t141 -14.5q30 -4 45 -4q122 0 135 112z" />
    <glyph glyph-name="ccedilla" unicode="&#x437;" 
d="M648 260q0 56 -24.5 84t-68.5 37t-103 11h-164v176h148q15 -1 43 -1q71 0 108 21.5t41 83.5q-20 63 -54 87.5t-126 24.5q-80 0 -122.5 -11t-62 -47.5t-19.5 -113.5h-216q-4 8 -4 32q0 130 54.5 199t145.5 91t228 22q162 -6 243.5 -36t111 -77t45.5 -123
q-6 -85 -16 -121.5t-51.5 -67t-132.5 -51.5q121 0 176.5 -54.5t55.5 -173.5q-1 -88 -56.5 -149.5t-150.5 -92t-211 -30.5h-30q-115 0 -194.5 17.5t-128.5 57.5t-73 112.5t-24 184.5h224q0 -85 20 -128t67 -57.5t141 -14.5q30 -4 45 -4q122 0 135 112z" />
    <glyph glyph-name="egrave" unicode="&#xe8;" horiz-adv-x="872" 
d="M864 952v-956h-216l4 156h-8q-46 -97 -117.5 -132.5t-190.5 -35.5q-324 0 -324 328v640h228v-588q0 -77 12 -118t49.5 -61.5t110.5 -20.5q96 0 144 27t64 80.5t16 148.5v532h228z" />
    <glyph glyph-name="egrave" unicode="&#x438;" horiz-adv-x="872" 
d="M864 952v-956h-216l4 156h-8q-46 -97 -117.5 -132.5t-190.5 -35.5q-324 0 -324 328v640h228v-588q0 -77 12 -118t49.5 -61.5t110.5 -20.5q96 0 144 27t64 80.5t16 148.5v532h228z" />
    <glyph glyph-name="eacute" unicode="&#xe9;" horiz-adv-x="872" 
d="M864 952v-956h-216l4 156h-8q-46 -97 -117.5 -132.5t-190.5 -35.5q-324 0 -324 328v640h228v-588q0 -77 12 -118t49.5 -61.5t110.5 -20.5q96 0 144 27t64 80.5t16 148.5v532h228zM264 1004l-4 152h348v-152h-344z" />
    <glyph glyph-name="eacute" unicode="&#x439;" horiz-adv-x="872" 
d="M864 952v-956h-216l4 156h-8q-46 -97 -117.5 -132.5t-190.5 -35.5q-324 0 -324 328v640h228v-588q0 -77 12 -118t49.5 -61.5t110.5 -20.5q96 0 144 27t64 80.5t16 148.5v532h228zM264 1004l-4 152h348v-152h-344z" />
    <glyph glyph-name="ecircumflex" unicode="&#xea;" 
d="M224 952v-372h56l268 376h260l-340 -452l408 -508h-276l-320 428h-56v-428h-228l4 956h224z" />
    <glyph glyph-name="ecircumflex" unicode="&#x43a;" 
d="M224 952v-372h56l268 376h260l-340 -452l408 -508h-276l-320 428h-56v-428h-228l4 956h224z" />
    <glyph glyph-name="edieresis" unicode="&#xeb;" horiz-adv-x="936" 
d="M916 0h-240l-208 800l-228 -800h-236l292 956h344z" />
    <glyph glyph-name="edieresis" unicode="&#x43b;" horiz-adv-x="936" 
d="M916 0h-240l-208 800l-228 -800h-236l292 956h344z" />
    <glyph glyph-name="igrave" unicode="&#xec;" horiz-adv-x="1324" 
d="M660 184l308 772h332v-960h-224v788l-16 -80l-276 -708h-248l-276 708l-16 80v-788h-224v960h332z" />
    <glyph glyph-name="igrave" unicode="&#x43c;" horiz-adv-x="1324" 
d="M660 184l308 772h332v-960h-224v788l-16 -80l-276 -708h-248l-276 708l-16 80v-788h-224v960h332z" />
    <glyph glyph-name="iacute" unicode="&#xed;" horiz-adv-x="872" 
d="M236 392v-396h-228v960h228v-372h404v372h228v-960h-228v396h-404z" />
    <glyph glyph-name="iacute" unicode="&#x43d;" horiz-adv-x="872" 
d="M236 392v-396h-228v960h228v-372h404v372h228v-960h-228v396h-404z" />
    <glyph glyph-name="icircumflex" unicode="&#xee;" horiz-adv-x="916" 
d="M0 516q0 176 37.5 272.5t131 138t267.5 41.5q145 0 232 -20t138 -69.5t72.5 -137t21.5 -233.5q0 -151 -10 -238t-50 -152.5t-126 -99.5t-234 -34q-180 0 -282 34t-150 129t-48 277v92zM232 424q0 -99 9.5 -151.5t51 -84.5t135.5 -32h28q62 0 105.5 8.5t70.5 43.5
q24 40 32 101.5t8 138.5v76q0 128 -38 198t-150 70h-60q-89 0 -130.5 -40.5t-51.5 -100t-10 -159.5v-68z" />
    <glyph glyph-name="icircumflex" unicode="&#x43e;" horiz-adv-x="916" 
d="M0 516q0 176 37.5 272.5t131 138t267.5 41.5q145 0 232 -20t138 -69.5t72.5 -137t21.5 -233.5q0 -151 -10 -238t-50 -152.5t-126 -99.5t-234 -34q-180 0 -282 34t-150 129t-48 277v92zM232 424q0 -99 9.5 -151.5t51 -84.5t135.5 -32h28q62 0 105.5 8.5t70.5 43.5
q24 40 32 101.5t8 138.5v76q0 128 -38 198t-150 70h-60q-89 0 -130.5 -40.5t-51.5 -100t-10 -159.5v-68z" />
    <glyph glyph-name="idieresis" unicode="&#xef;" horiz-adv-x="872" 
d="M8 956h216l4 -148q53 86 123.5 123t176.5 37q120 0 194 -29.5t110 -99t36 -187.5v-656h-228v592q0 79 -12.5 120t-50 60.5t-117.5 19.5q-108 0 -166 -53.5t-58 -162.5v-576h-228v960z" />
    <glyph glyph-name="idieresis" unicode="&#x43f;" horiz-adv-x="872" 
d="M8 956h216l4 -148q53 86 123.5 123t176.5 37q120 0 194 -29.5t110 -99t36 -187.5v-656h-228v592q0 79 -12.5 120t-50 60.5t-117.5 19.5q-108 0 -166 -53.5t-58 -162.5v-576h-228v960z" />
    <glyph glyph-name="eth" unicode="&#xf0;" horiz-adv-x="916" 
d="M16 952h220v-132q55 84 120 114t172 30q163 0 244.5 -54t106.5 -154t25 -272q0 -162 -22.5 -267t-102 -169t-239.5 -64q-76 0 -126.5 11t-92.5 42t-77 91l-4 -532h-224v1356zM240 440q0 -66 8 -115t32 -86t67 -56t113 -19q98 0 143.5 31.5t57 87t11.5 157.5v56
q0 182 -40 240q-26 34 -67 43t-101 9h-12q-65 0 -101.5 -7t-64.5 -38.5t-38 -102.5q-8 -96 -8 -140v-60z" />
    <glyph glyph-name="eth" unicode="&#x440;" horiz-adv-x="916" 
d="M16 952h220v-132q55 84 120 114t172 30q163 0 244.5 -54t106.5 -154t25 -272q0 -162 -22.5 -267t-102 -169t-239.5 -64q-76 0 -126.5 11t-92.5 42t-77 91l-4 -532h-224v1356zM240 440q0 -66 8 -115t32 -86t67 -56t113 -19q98 0 143.5 31.5t57 87t11.5 157.5v56
q0 182 -40 240q-26 34 -67 43t-101 9h-12q-65 0 -101.5 -7t-64.5 -38.5t-38 -102.5q-8 -96 -8 -140v-60z" />
    <glyph glyph-name="ntilde" unicode="&#xf1;" 
d="M660 360h224q0 -115 -20.5 -186.5t-66 -113t-121 -59t-192.5 -17.5q-134 0 -223 21.5t-144 71.5t-80 138t-25 225q0 145 14.5 237t59 157t131.5 97.5t231 32.5q136 0 228 -21.5t146 -90t54 -200.5q0 -24 -4 -32h-220q0 76 -21 111.5t-62.5 46t-124.5 10.5q-60 0 -99.5 -9
t-60.5 -43q-42 -65 -42 -205q1 -31 1.5 -56.5t0.5 -62.5q0 -93 13 -145t57 -79.5t134 -27.5q92 0 135.5 14.5t60 56t16.5 129.5z" />
    <glyph glyph-name="ntilde" unicode="&#x441;" 
d="M660 360h224q0 -115 -20.5 -186.5t-66 -113t-121 -59t-192.5 -17.5q-134 0 -223 21.5t-144 71.5t-80 138t-25 225q0 145 14.5 237t59 157t131.5 97.5t231 32.5q136 0 228 -21.5t146 -90t54 -200.5q0 -24 -4 -32h-220q0 76 -21 111.5t-62.5 46t-124.5 10.5q-60 0 -99.5 -9
t-60.5 -43q-42 -65 -42 -205q1 -31 1.5 -56.5t0.5 -62.5q0 -93 13 -145t57 -79.5t134 -27.5q92 0 135.5 14.5t60 56t16.5 129.5z" />
    <glyph glyph-name="ograve" unicode="&#xf2;" horiz-adv-x="1472" 
d="M8 956h220l4 -140q48 82 118.5 115t173.5 33q262 0 296 -168h8q37 93 112.5 130.5t187.5 37.5q180 0 258 -77.5t78 -254.5v-636h-232v592q0 74 -12 114t-48 61t-108 21q-65 0 -108.5 -11.5t-75.5 -61t-32 -151.5v-564h-232v596q-3 114 -31 153t-137 39q-77 0 -124.5 -26
t-67.5 -77.5t-20 -128.5v-556h-228v960z" />
    <glyph glyph-name="ograve" unicode="&#x442;" horiz-adv-x="1472" 
d="M8 956h220l4 -140q48 82 118.5 115t173.5 33q262 0 296 -168h8q37 93 112.5 130.5t187.5 37.5q180 0 258 -77.5t78 -254.5v-636h-232v592q0 74 -12 114t-48 61t-108 21q-65 0 -108.5 -11.5t-75.5 -61t-32 -151.5v-564h-232v596q-3 114 -31 153t-137 39q-77 0 -124.5 -26
t-67.5 -77.5t-20 -128.5v-556h-228v960z" />
    <glyph glyph-name="oacute" unicode="&#xf3;" horiz-adv-x="936" 
d="M920 956l-256 -1016q-29 -123 -65 -201t-107 -122.5t-192 -44.5q-64 0 -92 8v164q24 -6 45 -6q140 0 191 258h-112l-316 960h236l244 -816l188 816h236z" />
    <glyph glyph-name="oacute" unicode="&#x443;" horiz-adv-x="936" 
d="M920 956l-256 -1016q-29 -123 -65 -201t-107 -122.5t-192 -44.5q-64 0 -92 8v164q24 -6 45 -6q140 0 191 258h-112l-316 960h236l244 -816l188 816h236z" />
    <glyph glyph-name="ocircumflex" unicode="&#xf4;" horiz-adv-x="1448" 
d="M1204 436v56q0 85 -6.5 145.5t-29.5 94.5q-21 34 -58.5 43t-93.5 9h-8q-113 0 -148.5 -76.5t-35.5 -203.5v-72q0 -69 6.5 -117.5t25 -82.5t57 -53t99.5 -19q89 0 129.5 31.5t51.5 87t11 157.5zM240 436q0 -102 11 -157.5t51.5 -87t129.5 -31.5q82 0 123 32t53 89.5
t12 150.5v72q0 129 -34 204.5t-146 75.5h-12q-55 0 -91 -9t-57 -43q-40 -58 -40 -240v-56zM620 948h204v-132q49 84 103.5 114t144.5 30q149 0 226 -51t103.5 -150t26.5 -267q0 -120 -12 -207t-47.5 -156t-104 -109t-176.5 -40q-68 0 -112.5 10t-81 40.5t-66.5 89.5v-528
h-212v528q-30 -59 -66 -89.5t-80.5 -40.5t-109.5 -10q-109 0 -179 40.5t-104.5 108.5t-47.5 160t-13 203q0 164 27 264.5t104.5 152t224.5 51.5q92 0 145 -30t103 -114v132z" />
    <glyph glyph-name="ocircumflex" unicode="&#x444;" horiz-adv-x="1448" 
d="M1204 436v56q0 85 -6.5 145.5t-29.5 94.5q-21 34 -58.5 43t-93.5 9h-8q-113 0 -148.5 -76.5t-35.5 -203.5v-72q0 -69 6.5 -117.5t25 -82.5t57 -53t99.5 -19q89 0 129.5 31.5t51.5 87t11 157.5zM240 436q0 -102 11 -157.5t51.5 -87t129.5 -31.5q82 0 123 32t53 89.5
t12 150.5v72q0 129 -34 204.5t-146 75.5h-12q-55 0 -91 -9t-57 -43q-40 -58 -40 -240v-56zM620 948h204v-132q49 84 103.5 114t144.5 30q149 0 226 -51t103.5 -150t26.5 -267q0 -120 -12 -207t-47.5 -156t-104 -109t-176.5 -40q-68 0 -112.5 10t-81 40.5t-66.5 89.5v-528
h-212v528q-30 -59 -66 -89.5t-80.5 -40.5t-109.5 -10q-109 0 -179 40.5t-104.5 108.5t-47.5 160t-13 203q0 164 27 264.5t104.5 152t224.5 51.5q92 0 145 -30t103 -114v132z" />
    <glyph glyph-name="otilde" unicode="&#xf5;" horiz-adv-x="936" 
d="M900 956l-276 -456l308 -504h-272l-192 352l-188 -352h-276l316 504l-280 456h264l164 -308l168 308h264z" />
    <glyph glyph-name="otilde" unicode="&#x445;" horiz-adv-x="936" 
d="M900 956l-276 -456l308 -504h-272l-192 352l-188 -352h-276l316 504l-280 456h264l164 -308l168 308h264z" />
    <glyph glyph-name="odieresis" unicode="&#xf6;" horiz-adv-x="980" 
d="M864 152q108 0 108 -64l-4 -248l-212 4v152h-104v156h-8q-46 -97 -117.5 -132.5t-190.5 -35.5q-324 0 -324 328v640h228v-588q0 -77 12 -118t49.5 -61.5t110.5 -20.5q96 0 144 27t64 80.5t16 148.5v532h228v-800z" />
    <glyph glyph-name="odieresis" unicode="&#x446;" horiz-adv-x="980" 
d="M864 152q108 0 108 -64l-4 -248l-212 4v152h-104v156h-8q-46 -97 -117.5 -132.5t-190.5 -35.5q-324 0 -324 328v640h228v-588q0 -77 12 -118t49.5 -61.5t110.5 -20.5q96 0 144 27t64 80.5t16 148.5v532h228v-800z" />
    <glyph glyph-name="oe" unicode="&#x153;" horiz-adv-x="872" 
d="M236 628q2 -61 10.5 -88.5t41 -41.5t112.5 -14h244v472h228v-960h-224v308h-296q-124 0 -197 19t-108 78t-35 175v380h224v-328z" />
    <glyph glyph-name="oslash" unicode="&#xf8;" horiz-adv-x="1472" 
d="M1468 -4h-224v140q-49 -83 -119 -115.5t-173 -32.5q-262 0 -300 168h-4q-71 -168 -300 -168q-91 0 -155 19.5t-103 58.5t-58.5 101.5t-19.5 152.5v636h232v-592q0 -74 12 -114t48 -61t108 -21q64 0 107 11.5t74 60t31 152.5v564h236v-596q3 -114 31 -153t137 -39
q116 0 164 56.5t48 175.5v556h228v-960z" />
    <glyph glyph-name="oslash" unicode="&#x448;" horiz-adv-x="1472" 
d="M1468 -4h-224v140q-49 -83 -119 -115.5t-173 -32.5q-262 0 -300 168h-4q-71 -168 -300 -168q-91 0 -155 19.5t-103 58.5t-58.5 101.5t-19.5 152.5v636h232v-592q0 -74 12 -114t48 -61t108 -21q64 0 107 11.5t74 60t31 152.5v564h236v-596q3 -114 31 -153t137 -39
q116 0 164 56.5t48 175.5v556h228v-960z" />
    <glyph glyph-name="ugrave" unicode="&#xf9;" horiz-adv-x="1576" 
d="M1468 956v-804q49 0 74.5 -13t25.5 -47v-252h-216v156h-108v140q-49 -83 -119 -115.5t-173 -32.5q-262 0 -300 168h-4q-71 -168 -300 -168q-91 0 -155 19.5t-103 58.5t-58.5 101.5t-19.5 152.5v636h232v-592q0 -74 12 -114t48 -61t108 -21q64 0 107 11.5t74 60t31 152.5
v564h236v-596q3 -114 31 -153t137 -39q116 0 164 56.5t48 175.5v556h228z" />
    <glyph glyph-name="ugrave" unicode="&#x449;" horiz-adv-x="1576" 
d="M1468 956v-804q49 0 74.5 -13t25.5 -47v-252h-216v156h-108v140q-49 -83 -119 -115.5t-173 -32.5q-262 0 -300 168h-4q-71 -168 -300 -168q-91 0 -155 19.5t-103 58.5t-58.5 101.5t-19.5 152.5v636h232v-592q0 -74 12 -114t48 -61t108 -21q64 0 107 11.5t74 60t31 152.5
v564h236v-596q3 -114 31 -153t137 -39q116 0 164 56.5t48 175.5v556h228z" />
    <glyph glyph-name="uacute" unicode="&#xfa;" horiz-adv-x="1064" 
d="M816 260q-6 82 -39 107t-145 25h-208v-240h232q13 -1 37 -1q60 0 88 21t35 88zM184 788h-188v168h428v-400h280q182 -6 267 -69.5t85 -213.5v-21q-10 -109 -46 -162.5t-111.5 -71.5t-217.5 -18h-61h-436v788z" />
    <glyph glyph-name="uacute" unicode="&#x44a;" horiz-adv-x="1064" 
d="M816 260q-6 82 -39 107t-145 25h-208v-240h232q13 -1 37 -1q60 0 88 21t35 88zM184 788h-188v168h428v-400h280q182 -6 267 -69.5t85 -213.5v-21q-10 -109 -46 -162.5t-111.5 -71.5t-217.5 -18h-61h-436v788z" />
    <glyph glyph-name="ucircumflex" unicode="&#xfb;" horiz-adv-x="1236" 
d="M640 256q-6 58 -21 86t-52.5 39t-114.5 11h-204v-244h228q13 -1 37 -1q61 0 90.5 21t36.5 88zM1000 -4v956h228v-956h-228zM4 952h244l-4 -396h284q180 -6 264 -70.5t84 -216.5v-21q-8 -91 -31 -139t-72 -73.5t-121.5 -32.5t-211.5 -7h-436v956z" />
    <glyph glyph-name="ucircumflex" unicode="&#x44b;" horiz-adv-x="1236" 
d="M640 256q-6 58 -21 86t-52.5 39t-114.5 11h-204v-244h228q13 -1 37 -1q61 0 90.5 21t36.5 88zM1000 -4v956h228v-956h-228zM4 952h244l-4 -396h284q180 -6 264 -70.5t84 -216.5v-21q-8 -91 -31 -139t-72 -73.5t-121.5 -32.5t-211.5 -7h-436v956z" />
    <glyph glyph-name="udieresis" unicode="&#xfc;" 
d="M648 260q-6 57 -21.5 84t-53 37.5t-113.5 10.5h-204v-240h228q13 -1 37 -1q61 0 90.5 21t36.5 88zM256 956l-4 -400h284q180 -6 264 -70t84 -213v-21q-9 -110 -44 -163.5t-110.5 -71t-219.5 -17.5h-62h-436v956h244z" />
    <glyph glyph-name="udieresis" unicode="&#x44c;" 
d="M648 260q-6 57 -21.5 84t-53 37.5t-113.5 10.5h-204v-240h228q13 -1 37 -1q61 0 90.5 21t36.5 88zM256 956l-4 -400h284q180 -6 264 -70t84 -213v-21q-9 -110 -44 -163.5t-110.5 -71t-219.5 -17.5h-62h-436v956h244z" />
    <glyph glyph-name="yacute" unicode="&#xfd;" 
d="M276 396v172l364 4q0 111 -32 164q-21 34 -60.5 43t-99.5 9q-83 0 -125.5 -10.5t-64.5 -45.5t-22 -112h-216q-4 8 -4 32q0 132 54 200.5t146 90t228 21.5q143 0 231 -33t131.5 -96t58.5 -157.5t15 -237.5q0 -183 -46 -280.5t-146.5 -136.5t-279.5 -39q-115 0 -191 17.5
t-121 58.5t-66.5 113t-21.5 187h224q0 -88 16.5 -129.5t60 -56t135.5 -14.5q86 0 129.5 25.5t57 74t13.5 136.5h-368z" />
    <glyph glyph-name="yacute" unicode="&#x44d;" 
d="M276 396v172l364 4q0 111 -32 164q-21 34 -60.5 43t-99.5 9q-83 0 -125.5 -10.5t-64.5 -45.5t-22 -112h-216q-4 8 -4 32q0 132 54 200.5t146 90t228 21.5q143 0 231 -33t131.5 -96t58.5 -157.5t15 -237.5q0 -183 -46 -280.5t-146.5 -136.5t-279.5 -39q-115 0 -191 17.5
t-121 58.5t-66.5 113t-21.5 187h224q0 -88 16.5 -129.5t60 -56t135.5 -14.5q86 0 129.5 25.5t57 74t13.5 136.5h-368z" />
    <glyph glyph-name="thorn" unicode="&#xfe;" horiz-adv-x="1324" 
d="M240 392v-396h-220v960h220v-372h164q6 149 48 231.5t133.5 117.5t254.5 35q144 0 231.5 -20t140 -69.5t74.5 -136t22 -234.5q0 -151 -11 -240t-50.5 -152.5t-126 -97.5t-236.5 -34q-134 0 -219.5 17t-143 61.5t-86 122.5t-31.5 207h-164zM640 424q0 -75 4 -117.5
t21.5 -77.5t57.5 -54t109 -19h28q63 0 107.5 9t68.5 43q26 40 33 97.5t7 142.5v76q0 84 -7.5 141.5t-36.5 86.5q-40 40 -144 40h-56q-100 0 -136 -36q-58 -42 -58 -181q1 -22 1.5 -40t0.5 -43v-68z" />
    <glyph glyph-name="thorn" unicode="&#x44e;" horiz-adv-x="1324" 
d="M240 392v-396h-220v960h220v-372h164q6 149 48 231.5t133.5 117.5t254.5 35q144 0 231.5 -20t140 -69.5t74.5 -136t22 -234.5q0 -151 -11 -240t-50.5 -152.5t-126 -97.5t-236.5 -34q-134 0 -219.5 17t-143 61.5t-86 122.5t-31.5 207h-164zM640 424q0 -75 4 -117.5
t21.5 -77.5t57.5 -54t109 -19h28q63 0 107.5 9t68.5 43q26 40 33 97.5t7 142.5v76q0 84 -7.5 141.5t-36.5 86.5q-40 40 -144 40h-56q-100 0 -136 -36q-58 -42 -58 -181q1 -22 1.5 -40t0.5 -43v-68z" />
    <glyph glyph-name="ydieresis" unicode="&#xff;" 
d="M220 420q-97 27 -149 87.5t-52 169.5q0 6 0.5 10.5t0.5 12.5q7 82 28 132.5t61 75.5t107 34.5t178 9.5h62h436v-956h-244v352h-208q-132 0 -132 -100v-252h-252l4 284q0 57 51.5 98.5t108.5 41.5zM432 516h216v284h-232h-21q-65 0 -95.5 -26t-39.5 -98q5 -64 16 -95
t47 -48t109 -17z" />
    <glyph glyph-name="ydieresis" unicode="&#x44f;" 
d="M220 420q-97 27 -149 87.5t-52 169.5q0 6 0.5 10.5t0.5 12.5q7 82 28 132.5t61 75.5t107 34.5t178 9.5h62h436v-956h-244v352h-208q-132 0 -132 -100v-252h-252l4 284q0 57 51.5 98.5t108.5 41.5zM432 516h216v284h-232h-21q-65 0 -95.5 -26t-39.5 -98q5 -64 16 -95
t47 -48t109 -17z" />
    </font>
</defs>
</svg>
